<!--?xml version="1.0" encoding="UTF-8" standalone="no"?-->

<svg width="100%" height="100%" viewBox="0 0 1883 1902" version="1.1" xmlns="http://www.w3.org/2000/svg" xmlns:xlink="http://www.w3.org/1999/xlink" xml:space="preserve" xmlns:serif="http://www.serif.com/" style="fill-rule: evenodd; clip-rule: evenodd; stroke-linecap: round; stroke-linejoin: round;">
    <g transform="matrix(1,0,0,1,5,-95.66)">
        <path d="M1764,551.54C1803.44,627.289 1831.93,708.25 1848.64,792C1885.07,974.54 1865.28,1170 1779.59,1351.16C1573.09,1787.8 1051.72,1974.36 615.09,1767.86C190,1566.85 8.34,1059.26 209.39,634.15C416.47,196.27 993.2,61.21 1313.19,239.15C1415.73,296.15 1545.67,415.2 1605.72,595.26C1665.07,773.2 1628.42,927.52 1610.72,987.46C1605.1,1004.18 1599.72,1017.69 1595.96,1026.6" style="fill:none;fill-rule:nonzero;stroke:rgb(217,226,236);stroke-width:22.87px;" class="noPivzyh_0"></path>
    </g>
    <g transform="matrix(1,0,0,1,5,-95.66)">
        <path d="M1251.19,1026.15C1251.19,1026.15 1196.29,956.61 1169.36,900.37C1142.43,844.13 1142.08,732 1112,680.31C1081.92,628.62 812.16,360.31 769.2,359.23C726.24,358.15 801.71,471.85 790.2,467.41C778.69,462.97 674.61,394.93 639,411.18C603.39,427.43 747.62,530.44 747.62,530.44C747.62,530.44 640.52,501.75 617.75,522.19C594.98,542.63 719.92,601.28 719.92,601.28C719.92,601.28 605.82,572.15 586.92,597.64C568.02,623.13 665.38,672.78 665.38,672.78" style="fill:none;fill-rule:nonzero;stroke:rgb(217,226,236);stroke-width:10px;stroke-linecap:butt;stroke-linejoin:miter;stroke-miterlimit:10;" class="noPivzyh_1"></path>
    </g>
    <g transform="matrix(1,0,0,1,5,-95.66)">
        <path d="M1603.35,944.56C1603.35,944.56 1570.05,989.89 1518.6,1060.56C1467.15,1131.23 1492,1215.66 1413.5,1298C1335,1380.34 1218,1402 1214.1,1402.77C1210.2,1403.54 1095.58,1419.77 1024.56,1465.55C953.54,1511.33 953.08,1650.76 944,1676.55C934.92,1702.34 923.22,1706.63 900.48,1703.02C877.74,1699.41 869.35,1682.02 869.35,1682.02C869.35,1682.02 856.35,1723.62 820.35,1718.58C784.35,1713.54 782.14,1686.9 782.14,1686.9C782.14,1686.9 749.14,1718.34 725.5,1704.9C701.86,1691.46 702.84,1655.18 702.84,1655.18C702.84,1655.18 657.76,1675.94 638.12,1636.65C618.48,1597.36 653.47,1586.58 653.47,1586.58C653.47,1586.58 630.91,1583.93 622.78,1557.45C614.65,1530.97 633.11,1507.34 633.11,1507.34C633.11,1507.34 596.91,1496.34 598.46,1462.95C600.01,1429.56 652.83,1438.39 713.9,1422.55C774.97,1406.71 830.71,1384.89 875.63,1352.13C920.55,1319.37 961.2,1240.35 961.2,1240.35C961.2,1240.35 894.09,1273.35 876.41,1254.78C858.73,1236.21 899,1208.27 899,1208.27C899,1208.27 840.37,1242.68 816.81,1214.18C793.25,1185.68 832.81,1146.93 832.81,1146.93C832.81,1146.93 748.18,1165.33 730.98,1138.6C713.78,1111.87 785.43,1067.92 785.43,1067.92C785.43,1067.92 670.9,1118.17 653.73,1086.42C636.56,1054.67 720.73,1008.3 720.73,1008.3C720.73,1008.3 563.57,1055.77 552.57,1024.84C541.57,993.91 672.14,938.54 672.14,938.54C672.14,938.54 477.31,962.25 473.47,926.92C468.3,899.87 622.66,869 622.66,869C622.66,869 439.25,853.42 439.28,817.34C439.31,781.26 585.13,789.08 585.13,789.08C585.13,789.08 408.13,760.23 408.76,727.08C409.39,693.93 525.2,712.48 525.2,712.48C525.2,712.48 333,594.39 338.57,561.23C344.14,528.07 442.26,588.56 541.57,626.13C640.88,663.7 837.66,737.13 937.37,775.94C1037.08,814.75 1103,989.38 1151.19,1021.12C1199.38,1052.86 1275.8,1022.9 1296.31,999.46C1316.82,976.02 1372.31,859.03 1484.31,852.38C1596.31,845.73 1603.35,944.56 1603.35,944.56Z" style="fill:none;fill-rule:nonzero;stroke:rgb(217,226,236);stroke-width:10px;stroke-linecap:butt;stroke-linejoin:miter;stroke-miterlimit:10;" class="noPivzyh_2"></path>
    </g>
    <g transform="matrix(1,0,0,1,5,-95.66)">
        <path d="M707.36,1539C695.65,1561.31 708.62,1586.86 723.2,1600.07C732.42,1606.3 744.01,1604.07 754.86,1597.94C757.97,1593.33 761.09,1588.72 768.07,1583.36C765.58,1611.9 775.43,1642.06 801.6,1653.03C835.51,1662.49 874.26,1634.94 870.6,1595.56L874.34,1614.88C890.43,1638.58 919.16,1670.78 948.77,1650.83C947.11,1662.56 945.7,1671.63 943.96,1676.55C934.89,1702.36 923.18,1706.63 900.44,1703.02C877.7,1699.41 869.31,1682.02 869.31,1682.02C869.31,1682.02 856.31,1723.62 820.31,1718.58C784.31,1713.54 782.1,1686.9 782.1,1686.9C782.1,1686.9 749.1,1718.34 725.46,1704.9C701.82,1691.46 702.8,1655.18 702.8,1655.18C702.8,1655.18 657.72,1675.94 638.08,1636.65C618.44,1597.36 653.43,1586.58 653.43,1586.58C653.43,1586.58 630.87,1583.93 622.74,1557.45C614.61,1530.97 633.07,1507.34 633.07,1507.34C633.07,1507.34 596.87,1496.34 598.42,1462.95C599.58,1437.95 629.55,1436.62 670.22,1430.86C649.39,1473 652,1536.05 707.36,1539Z" style="fill:none;fill-rule:nonzero;stroke:rgb(217,226,236);stroke-width:10px;stroke-linecap:butt;stroke-linejoin:miter;stroke-miterlimit:10;" class="noPivzyh_3"></path>
    </g>
    <g transform="matrix(1,0,0,1,5,-95.66)">
        <path d="M973.2,1483.51C985.78,1445 1025.28,1421.31 1063.2,1409.97C1221.73,1359.21 1361.2,1272.07 1403.9,1099.45C1427.9,1013.54 1516.53,962.77 1600.51,929.18C1601.9,934.216 1602.86,939.361 1603.38,944.56C1603.9,949.759 1570.08,989.89 1518.63,1060.56C1467.18,1131.23 1492,1215.66 1413.5,1298C1335,1380.34 1218,1402 1214.1,1402.77C1210.2,1403.54 1095.58,1419.77 1024.56,1465.55C998.82,1482.16 982.37,1511.05 971.4,1542.37C966.734,1522.94 967.356,1502.62 973.2,1483.51Z" style="fill:none;fill-rule:nonzero;stroke:rgb(217,226,236);stroke-width:10px;stroke-linecap:butt;stroke-linejoin:miter;stroke-miterlimit:10;" class="noPivzyh_4"></path>
    </g>
    <g opacity="0.69">
        <g transform="matrix(1,0,0,1,5,-95.66)">
            <path d="M1183.59,1303.82C1218.59,1277.32 1254.23,1255.69 1284.13,1222.72C1314.83,1188.86 1337.94,1148.26 1354.66,1105.87C1359.31,1094.08 1377.22,1100.27 1373.29,1112.41C1358.57,1157.83 1333.29,1197.82 1300.48,1232.41C1270.48,1263.99 1228.75,1297.47 1185.32,1307.35C1183.42,1307.78 1181.97,1305.06 1183.59,1303.83L1183.59,1303.82Z" style="fill:none;fill-rule:nonzero;stroke:rgb(217,226,236);stroke-width:10px;stroke-linecap:butt;stroke-linejoin:miter;stroke-miterlimit:10;" class="noPivzyh_5"></path>
        </g>
        <g transform="matrix(1,0,0,1,5,-95.66)">
            <path d="M1228.12,1251.75C1258.35,1216.62 1286.29,1179.86 1309.62,1139.75C1315.75,1129.22 1331.89,1139.98 1325.37,1150.39C1300.37,1190.33 1271,1227.11 1235.53,1258.28C1231.43,1261.88 1224.34,1256.14 1228.12,1251.75Z" style="fill:none;fill-rule:nonzero;stroke:rgb(217,226,236);stroke-width:10px;stroke-linecap:butt;stroke-linejoin:miter;stroke-miterlimit:10;" class="noPivzyh_6"></path>
        </g>
        <g transform="matrix(1,0,0,1,5,-95.66)">
            <path d="M1038.8,955.61C1008.44,904.853 965.568,862.72 914.29,833.25C859.49,801.91 797.04,789.95 736.29,775.81C723.21,772.81 727.85,749.81 741.19,752.54C806,765.93 872,782.19 928.74,817.5C980.52,849.75 1021.05,896.5 1047.56,951.26C1050.34,957 1041.99,960.94 1038.8,955.61Z" style="fill:none;fill-rule:nonzero;stroke:rgb(217,226,236);stroke-width:10px;stroke-linecap:butt;stroke-linejoin:miter;stroke-miterlimit:10;" class="noPivzyh_7"></path>
        </g>
        <g transform="matrix(1,0,0,1,5,-95.66)">
            <path d="M992.9,935.68C950.46,886.97 899.57,854.22 839.9,830.73C829.51,826.64 834.9,811.12 845.64,814.36C908.13,833.34 963,877.73 999,931.61C1001.36,935.14 995.6,938.75 992.92,935.68L992.9,935.68Z" style="fill:none;fill-rule:nonzero;stroke:rgb(217,226,236);stroke-width:10px;stroke-linecap:butt;stroke-linejoin:miter;stroke-miterlimit:10;" class="noPivzyh_8"></path>
        </g>
        <g transform="matrix(1,0,0,1,5,-95.66)">
            <path d="M845.86,1411.76C807.54,1441.15 753.13,1475.67 702.56,1468.16C688.79,1466.11 690.68,1444.16 704.23,1446.64C750.14,1455.1 801.65,1425.45 840.87,1404.31C845.32,1401.91 849.96,1408.61 845.87,1411.76L845.86,1411.76Z" style="fill:none;fill-rule:nonzero;stroke:rgb(217,226,236);stroke-width:10px;stroke-linecap:butt;stroke-linejoin:miter;stroke-miterlimit:10;" class="noPivzyh_9"></path>
        </g>
        <g transform="matrix(1,0,0,1,5,-95.66)">
            <path d="M828.79,1460.46C804.51,1478.97 778.33,1495.06 747.12,1496.96C733.21,1497.81 731.86,1477.96 746.03,1477.79C773.85,1477.53 798.21,1463.43 821.03,1448.91C827.71,1444.67 835.03,1455.67 828.77,1460.46L828.79,1460.46Z" style="fill:none;fill-rule:nonzero;stroke:rgb(217,226,236);stroke-width:10px;stroke-linecap:butt;stroke-linejoin:miter;stroke-miterlimit:10;" class="noPivzyh_10"></path>
        </g>
    </g>
    <g transform="matrix(1,0,0,1,5,-95.66)">
        <path d="M1091.52,742.76C1082.16,693.89 1042.89,654.01 1005.23,624.09C971.82,597.54 934.94,576.45 898.33,554.74C887.46,548.29 898.45,532.27 909.28,538.54C984.94,582.3 1088.61,645.05 1100.57,741C1101.3,746.83 1092.64,748.64 1091.57,742.75L1091.52,742.76Z" style="fill:none;fill-rule:nonzero;stroke:rgb(217,226,236);stroke-width:10px;stroke-linecap:butt;stroke-linejoin:miter;stroke-miterlimit:10;" class="noPivzyh_11"></path>
    </g>
    <g transform="matrix(1,0,0,1,5,-95.66)">
        <path d="M1051.14,706.5C1026.92,666.83 986.57,649.7 946.5,630.26C936.07,625.2 941.5,608.07 952.62,612.85C996.74,631.85 1039.78,657.17 1064.03,700.1C1068.64,708.25 1055.9,714.29 1051.14,706.5Z" style="fill:none;fill-rule:nonzero;stroke:rgb(217,226,236);stroke-width:10px;stroke-linecap:butt;stroke-linejoin:miter;stroke-miterlimit:10;" class="noPivzyh_12"></path>
    </g>
    <g transform="matrix(1,0,0,1,5,-95.66)">
        <path d="M1494.33,942.68C1495.97,951.152 1503.46,957.328 1512.09,957.328C1522.01,957.328 1530.18,949.162 1530.18,939.238C1530.18,929.314 1522.01,921.148 1512.09,921.148C1510.93,921.148 1509.78,921.259 1508.64,921.48C1500.17,923.12 1494,930.604 1494,939.23C1494,940.388 1494.11,941.543 1494.33,942.68Z" style="fill:rgb(217,226,236);fill-rule:nonzero;stroke:rgb(217,226,236);stroke-width:1px;stroke-linecap:butt;stroke-miterlimit:2;" class="noPivzyh_13"></path>
    </g>
    <g transform="matrix(1,0,0,1,5,-95.66)">
        <path d="M1602.91,944.66L1655.91,1014.91C1655.91,1014.91 1619.81,1007.96 1607.11,1005.42C1594.41,1002.88 1556.75,1008.42 1556.75,1008.42L1602.91,944.66Z" style="fill:none;fill-rule:nonzero;stroke:rgb(217,226,236);stroke-width:10px;stroke-linecap:butt;stroke-linejoin:miter;stroke-miterlimit:10;" class="noPivzyh_14"></path>
    </g>
    <g transform="matrix(1,0,0,1,5,-95.66)">
        <path d="M1576.42,981.23L1602.91,944.66L1655.91,1014.91L1654.58,1014.66C1634.22,993.59 1605.12,983.69 1576.42,981.23Z" style="fill:rgb(62,76,89);fill-rule:nonzero;stroke:rgb(217,226,236);stroke-width:10px;stroke-linecap:butt;stroke-linejoin:miter;stroke-miterlimit:10;" class="noPivzyh_15"></path>
    </g>
    <g transform="matrix(1,0,0,1,5,-95.66)">
        <path d="M1492.88,409.44C1505.36,424.89 1472.36,486.22 1428.24,511.97C1410.37,522.41 1399.88,521.62 1377.58,535.63C1350.73,552.5 1333.17,574.22 1322.66,589.63C1319.21,575.42 1311.95,536.08 1334.88,494.42C1374.19,423 1477.24,390.08 1492.88,409.44Z" style="fill:none;fill-rule:nonzero;stroke:rgb(217,226,236);stroke-width:10px;stroke-linecap:butt;stroke-linejoin:miter;stroke-miterlimit:10;" class="noPivzyh_16"></path>
    </g>
    <g transform="matrix(1,0,0,1,5,-95.66)">
        <path d="M1008.74,188.78C1001.74,170.2 932.11,167.7 887.6,192.78C869.6,202.94 864.95,212.39 841.6,224.56C813.48,239.21 785.86,243.39 767.26,244.68C777.77,254.84 808.06,280.97 855.6,282.22C937.06,284.36 1017.55,212.06 1008.74,188.78Z" style="fill:none;fill-rule:nonzero;stroke:rgb(217,226,236);stroke-width:10px;stroke-linecap:butt;stroke-linejoin:miter;stroke-miterlimit:10;" class="noPivzyh_17"></path>
    </g>
    <g transform="matrix(1,0,0,1,5,-95.66)">
        <path d="M1412.35,265C1397.75,278.46 1334.35,249.55 1305.81,207.22C1294.23,190.06 1294.33,179.54 1278.89,158.22C1260.3,132.53 1237.47,116.43 1221.41,106.96C1235.36,102.58 1274.14,92.76 1317.21,112.96C1391,147.44 1430.65,248.12 1412.35,265Z" style="fill:none;fill-rule:nonzero;stroke:rgb(217,226,236);stroke-width:10px;stroke-linecap:butt;stroke-linejoin:miter;stroke-miterlimit:10;" class="noPivzyh_18"></path>
    </g>
    <g transform="matrix(1,0,0,1,5,-95.66)">
        <path d="M118.46,938.05C125.94,869.16 109.46,832.94 92.52,812.5C82.06,799.9 70.19,791.5 55.93,770.22C38.31,743.85 31.15,716.85 27.85,698.5C17.45,713.79 -1.78,747.13 0.13,790.4C2.92,853.51 49.55,911.47 118.46,938.05Z" style="fill:none;fill-rule:nonzero;stroke:rgb(217,226,236);stroke-width:10px;stroke-linecap:butt;stroke-linejoin:miter;stroke-miterlimit:10;" class="noPivzyh_19"></path>
    </g>
    <g transform="matrix(1,0,0,1,5,-95.66)">
        <path d="M259.84,1423.81C240.39,1419.81 226.84,1351.49 244.57,1303.57C251.74,1284.15 260.34,1278.1 268.65,1253.11C278.65,1223.02 278.4,1195.11 276.72,1176.51C288.42,1185.28 319.03,1211.04 327.8,1257.78C342.84,1337.88 284.23,1428.82 259.84,1423.81Z" style="fill:none;fill-rule:nonzero;stroke:rgb(217,226,236);stroke-width:10px;stroke-linecap:butt;stroke-linejoin:miter;stroke-miterlimit:10;" class="noPivzyh_20"></path>
    </g>
    <g transform="matrix(1,0,0,1,5,-95.66)">
        <path d="M507.89,1721.76C456.95,1679.18 419.89,1673.76 395.24,1677.03C377.84,1679.33 366.24,1686.03 340.37,1687.79C308.74,1689.99 281.75,1682.79 264.18,1676.54C271.76,1692.28 290.99,1726.17 330.18,1746.24C384,1773.82 453.29,1764 507.89,1721.76Z" style="fill:none;fill-rule:nonzero;stroke:rgb(217,226,236);stroke-width:10px;stroke-linecap:butt;stroke-linejoin:miter;stroke-miterlimit:10;" class="noPivzyh_21"></path>
    </g>
    <g transform="matrix(1,0,0,1,5,-95.66)">
        <path d="M827.4,1992.06C814.72,1926.89 789.4,1899.34 768.18,1886.31C753.18,1877.12 739.99,1874.95 718.81,1860.06C692.87,1841.82 676.47,1819.21 666.81,1803.28C662.81,1820.28 656.31,1858.71 674.06,1898.99C698.42,1954.33 758.42,1990.37 827.4,1992.06Z" style="fill:none;fill-rule:nonzero;stroke:rgb(217,226,236);stroke-width:10px;stroke-linecap:butt;stroke-linejoin:miter;stroke-miterlimit:10;" class="noPivzyh_22"></path>
    </g>
    <g transform="matrix(1,0,0,1,5,-95.66)">
        <path d="M1052.64,1630.25C1067.99,1679.65 1091.53,1704.47 1110.64,1718.05C1132.05,1733.23 1148.46,1734.7 1180.64,1754.66C1202.53,1768.28 1222.55,1784.7 1240.19,1803.51C1241.6,1784.75 1241.54,1746.93 1219.46,1709.78C1187.58,1656.16 1122.93,1626.07 1052.64,1630.25Z" style="fill:none;fill-rule:nonzero;stroke:rgb(217,226,236);stroke-width:10px;stroke-linecap:butt;stroke-linejoin:miter;stroke-miterlimit:10;" class="noPivzyh_23"></path>
    </g>
    <g transform="matrix(1,0,0,1,5,-95.66)">
        <path d="M1487.7,1682.62C1540.79,1642.75 1554.49,1607.93 1556.95,1583.16C1558.68,1565.69 1554.86,1552.83 1558.95,1527.28C1564.03,1495.98 1577.2,1471.34 1587.3,1455.66C1570.24,1459.46 1532.85,1470.44 1504.37,1504.01C1465.29,1550.11 1459.08,1619.83 1487.7,1682.62Z" style="fill:none;fill-rule:nonzero;stroke:rgb(217,226,236);stroke-width:10px;stroke-linecap:butt;stroke-linejoin:miter;stroke-miterlimit:10;" class="noPivzyh_24"></path>
    </g>
    <g transform="matrix(1,0,0,1,5,-95.66)">
        <path d="M1828.41,1179.31C1762.04,1181.31 1730.79,1201.95 1714.52,1220.79C1703.05,1234.07 1698.78,1246.79 1680.68,1265.3C1658.51,1287.97 1633.56,1300.53 1616.28,1307.54C1632.41,1314.26 1669.28,1326.8 1711.92,1315.75C1770.45,1300.57 1815.66,1247.13 1828.41,1179.31Z" style="fill:none;fill-rule:nonzero;stroke:rgb(217,226,236);stroke-width:10px;stroke-linecap:butt;stroke-linejoin:miter;stroke-miterlimit:10;" class="noPivzyh_25"></path>
    </g>
    <g transform="matrix(1,0,0,1,5,-95.66)">
        <path d="M1615.36,291C1627.77,303.61 1644.76,324.32 1654.04,353.5C1667.72,396.5 1653.1,421.38 1661.67,454.03C1668.29,479.24 1689.67,512.57 1758.54,542.31C1762.54,529.88 1783.17,461.65 1745.64,390.53C1704.62,312.83 1626.83,293.66 1615.36,291Z" style="fill:none;fill-rule:nonzero;stroke:rgb(217,226,236);stroke-width:10px;stroke-linecap:butt;stroke-linejoin:miter;stroke-miterlimit:10;" class="noPivzyh_26"></path>
    </g>
<style data-made-with="vivus-instant">.noPivzyh_0{stroke-dasharray:5748 5750;stroke-dashoffset:5749;animation:noPivzyh_draw 2000ms linear 0ms forwards;}.noPivzyh_1{stroke-dasharray:1836 1838;stroke-dashoffset:1837;animation:noPivzyh_draw 2000ms linear 38ms forwards;}.noPivzyh_2{stroke-dasharray:6073 6075;stroke-dashoffset:6074;animation:noPivzyh_draw 2000ms linear 76ms forwards;}.noPivzyh_3{stroke-dasharray:1301 1303;stroke-dashoffset:1302;animation:noPivzyh_draw 2000ms linear 115ms forwards;}.noPivzyh_4{stroke-dasharray:1881 1883;stroke-dashoffset:1882;animation:noPivzyh_draw 2000ms linear 153ms forwards;}.noPivzyh_5{stroke-dasharray:584 586;stroke-dashoffset:585;animation:noPivzyh_draw 2000ms linear 192ms forwards;}.noPivzyh_6{stroke-dasharray:324 326;stroke-dashoffset:325;animation:noPivzyh_draw 2000ms linear 230ms forwards;}.noPivzyh_7{stroke-dasharray:796 798;stroke-dashoffset:797;animation:noPivzyh_draw 2000ms linear 269ms forwards;}.noPivzyh_8{stroke-dasharray:422 424;stroke-dashoffset:423;animation:noPivzyh_draw 2000ms linear 307ms forwards;}.noPivzyh_9{stroke-dasharray:351 353;stroke-dashoffset:352;animation:noPivzyh_draw 2000ms linear 346ms forwards;}.noPivzyh_10{stroke-dasharray:225 227;stroke-dashoffset:226;animation:noPivzyh_draw 2000ms linear 384ms forwards;}.noPivzyh_11{stroke-dasharray:611 613;stroke-dashoffset:612;animation:noPivzyh_draw 2000ms linear 423ms forwards;}.noPivzyh_12{stroke-dasharray:327 329;stroke-dashoffset:328;animation:noPivzyh_draw 2000ms linear 461ms forwards;}.noPivzyh_13{stroke-dasharray:114 116;stroke-dashoffset:115;animation:noPivzyh_draw 2000ms linear 500ms forwards;}.noPivzyh_14{stroke-dasharray:268 270;stroke-dashoffset:269;animation:noPivzyh_draw 2000ms linear 538ms forwards;}.noPivzyh_15{stroke-dasharray:222 224;stroke-dashoffset:223;animation:noPivzyh_draw 2000ms linear 576ms forwards;}.noPivzyh_16{stroke-dasharray:553 555;stroke-dashoffset:554;animation:noPivzyh_draw 2000ms linear 615ms forwards;}.noPivzyh_17{stroke-dasharray:553 555;stroke-dashoffset:554;animation:noPivzyh_draw 2000ms linear 653ms forwards;}.noPivzyh_18{stroke-dasharray:553 555;stroke-dashoffset:554;animation:noPivzyh_draw 2000ms linear 692ms forwards;}.noPivzyh_19{stroke-dasharray:563 565;stroke-dashoffset:564;animation:noPivzyh_draw 2000ms linear 730ms forwards;}.noPivzyh_20{stroke-dasharray:553 555;stroke-dashoffset:554;animation:noPivzyh_draw 2000ms linear 769ms forwards;}.noPivzyh_21{stroke-dasharray:546 548;stroke-dashoffset:547;animation:noPivzyh_draw 2000ms linear 807ms forwards;}.noPivzyh_22{stroke-dasharray:546 548;stroke-dashoffset:547;animation:noPivzyh_draw 2000ms linear 846ms forwards;}.noPivzyh_23{stroke-dasharray:556 558;stroke-dashoffset:557;animation:noPivzyh_draw 2000ms linear 884ms forwards;}.noPivzyh_24{stroke-dasharray:546 548;stroke-dashoffset:547;animation:noPivzyh_draw 2000ms linear 923ms forwards;}.noPivzyh_25{stroke-dasharray:546 548;stroke-dashoffset:547;animation:noPivzyh_draw 2000ms linear 961ms forwards;}.noPivzyh_26{stroke-dasharray:637 639;stroke-dashoffset:638;animation:noPivzyh_draw 2000ms linear 1000ms forwards;}@keyframes noPivzyh_draw{100%{stroke-dashoffset:0;}}@keyframes noPivzyh_fade{0%{stroke-opacity:1;}94.44444444444444%{stroke-opacity:1;}100%{stroke-opacity:0;}}</style></svg>
