<?xml version="1.0" encoding="UTF-8" standalone="no"?>
<!DOCTYPE svg PUBLIC "-//W3C//DTD SVG 1.1//EN" "http://www.w3.org/Graphics/SVG/1.1/DTD/svg11.dtd">
<svg width="100%" height="100%" viewBox="0 0 512 512" version="1.1" xmlns="http://www.w3.org/2000/svg" xmlns:xlink="http://www.w3.org/1999/xlink" xml:space="preserve" xmlns:serif="http://www.serif.com/" style="fill-rule:evenodd;clip-rule:evenodd;stroke-linejoin:round;stroke-miterlimit:2;">
    <g transform="matrix(0.1,0,0,-0.1,0,512)">
        <path d="M2265,5109C1778,5049 1348,4870 955,4562C851,4480 605,4228 524,4120C257,3764 90,3374 23,2950C-3,2786 -3,2334 23,2170C105,1651 342,1172 703,794C1097,382 1577,127 2144,28C2318,-2 2687,-9 2871,15C4059,164 4981,1099 5110,2287C5126,2432 5118,2820 5096,2954C4912,4088 4008,4965 2880,5105C2745,5121 2387,5124 2265,5109ZM2880,4725C3601,4611 4211,4163 4525,3515C4679,3199 4744,2914 4744,2560C4744,2206 4679,1921 4525,1605C4210,956 3605,512 2875,394C2723,369 2408,369 2250,393C2019,429 1814,493 1605,595C954,911 505,1524 393,2250C369,2408 369,2712 393,2870C432.267,3124.54 512.959,3365.18 629.257,3584.01C844.67,3989.33 1182.24,4319.79 1605,4525C1856,4647 2089,4712 2395,4744C2478,4753 2779,4741 2880,4725Z" style="fill:rgb(255,41,41);fill-rule:nonzero;"/>
        <path d="M1560,3641C1508,3613 1469,3559 1463,3506C1451,3401 1434,3422 1883,2973L2295,2560L1883,2148C1434,1698 1451,1719 1463,1614C1469,1561 1508,1507 1560,1479C1598,1458 1673,1454 1717,1470C1732,1476 1928,1664 2153,1888L2560,2295L2968,1888C3192,1664 3388,1476 3403,1470C3470,1446 3568,1468 3611,1516C3657,1569 3673,1653 3650,1717C3644,1732 3456,1928 3232,2153L2825,2560L3232,2968C3456,3192 3644,3388 3650,3403C3666,3447 3662,3522 3641,3560C3613,3612 3559,3651 3506,3657C3401,3669 3422,3686 2972,3237L2560,2825L2152,3232C1928,3456 1732,3644 1717,3650C1673,3666 1598,3662 1560,3641Z" style="fill:rgb(255,41,41);fill-rule:nonzero;"/>
    </g>
</svg>
