<svg xmlns="http://www.w3.org/2000/svg" width="1999.99" height="1972.84" viewBox="0 0 1999.99 1972.84"><path d="M1602.91,944.66l53,70.25s-36.1-6.95-48.8-9.49-50.36,3-50.36,3Z" transform="translate(0 -19.22)" fill="#ffbc00"/><path d="M1764,551.54A903.41,903.41,0,0,1,1848.64,792c36.43,182.54,16.64,378-69.05,559.16-206.5,436.64-727.87,623.2-1164.5,416.7C190,1566.85,8.34,1059.26,209.39,634.15c207.08-437.88,783.81-572.94,1103.8-395,102.54,57,232.48,176.05,292.53,356.11,59.35,177.94,22.7,332.26,5,392.2-5.62,16.72-11,30.23-14.76,39.14" transform="translate(0 -19.22)" fill="none" stroke="#a66b49" stroke-linecap="round" stroke-linejoin="round" stroke-width="22.87"/><path d="M94.87,525.86l30.2-48.13c18.14-28.9,49.84-39.28,86.77-16.11,32.25,20.24,45.84,51.86,24.47,85.93l-30.2,48.12Zm106.07,32.37,13.73-21.87c8.92-14.22,8.72-33.29-15.89-48.74-22.44-14.08-41.67-15.26-57,9.11l-11,17.5Z" transform="translate(0 -19.22)"/><path d="M176.22,401.94l19.1-21.77,37.89,33.22,35.15-40.08-37.9-33.23,19.1-21.77,98.75,86.58-19.1,21.77-42.6-37.34L251.47,429.4l42.6,37.35L275,488.53Z" transform="translate(0 -19.22)"/><path d="M302.62,270.3,325.23,251l122.66,68L425,338.56l-26.55-15.8L361,354.7l11.1,29-22.32,19Zm50.15,63.11,26-22.13-43.89-25.91-.28.24Z" transform="translate(0 -19.22)"/><path d="M379.54,207.91l49.85-32.29c27.56-17.84,49.54-7.32,61.14,10.59s12.21,42.28-15.35,60.12l-25.55,16.55,25.6,39.52-24.31,15.74ZM437.44,244l18.89-12.23c11.3-7.32,19.76-16.31,10.67-30.36s-20.77-10-32.07-2.68L416,211Z" transform="translate(0 -19.22)"/><path d="M555.69,163.81c-12.48-26.67-6-54.08,22.47-66.33,21.69-9.32,46.63-3.63,56.59,19.52,7.63,17.74,2.35,31.62-5.78,44.93s-19.12,26-22.53,41.93l56.09-24.12,8.87,20.61-87.1,37.46c-11.6-27.45.16-46.32,14.7-69,7.46-11.61,18.56-25,12.48-39.6-4.79-11.16-15.3-15.05-25.64-10.6-14.23,6.12-12.48,22.79-7.11,35.29Z" transform="translate(0 -19.22)"/><path d="M677.36,60.87c24.65-7.7,50.26,1.25,65.24,49.19,15.31,49-.64,70.92-25.29,78.62-24.3,7.6-49.91-1.36-65.21-50.34C637.12,90.41,653.06,68.46,677.36,60.87Zm33.53,107.27c20.42-6.38,11-36.4,6.7-50.27-4-12.82-13.38-42.84-33.81-36.46-20.07,6.28-10.69,36.3-6.68,49.11C681.43,144.39,690.82,174.42,710.89,168.14Z" transform="translate(0 -19.22)"/><path d="M749.29,93.69C742.62,65,754.65,39.54,785,33.47c23.15-4.63,46.37,6.11,51.31,30.83,3.78,18.94-4.26,31.42-15,42.75s-24.11,21.51-30.74,36.34l59.87-12,4.4,22-93,18.57c-5.66-29.26,9.77-45.28,28.7-64.44C800.33,97.75,814,87,811.06,71.41c-2.38-11.9-11.86-17.89-22.89-15.69-15.19,3-16.94,19.71-14.28,33.06Z" transform="translate(0 -19.22)"/><path d="M923,147.49l-26.1,2.26-7.22-83.19-32.34,2.81-1.71-19.61C873.81,48.55,890,40.87,891.05,21l20.77-1.8Z" transform="translate(0 -19.22)"/><path d="M1001.82,1928.79l2.21,56.32-7,.27-4.49-114.22,71.66-2.82.24,6.08L999.78,1877l1.8,45.76,58.23-2.29.24,6.08Z" transform="translate(0 -19.22)"/><path d="M1081.12,1866.73l47.18-7.08c19.79-3,36.87,1.91,40.15,23.76,2.28,15.2-5.22,27.82-19.88,32.61l0,.31c17.07-.61,22.78,9.38,25.64,20.93s2.87,24.5,8.36,29.82l-7.75,1.17c-5.44-7.12-4.86-20.48-7.76-31.22-3.07-10.71-9.78-18.76-29.57-15.79l-40.22,6,7.72,51.46-7,1Zm55.52,48.49c16.46-2.47,27.65-12.08,24.91-30.29-2.56-17.1-17.15-21.55-32.35-19.27l-40.21,6,7.43,49.55Z" transform="translate(0 -19.22)"/><path d="M1266.34,1948.71c-32.95,9.41-59.6-10.45-68.78-42.63s3-63.11,35.9-72.52c32.79-9.36,59.44,10.5,68.62,42.68S1299.13,1939.35,1266.34,1948.71Zm-1.67-5.85c28.63-8.17,38.69-36.52,30.64-64.69s-31.55-46.93-60.18-38.76c-28.79,8.22-38.84,36.57-30.8,64.74S1235.88,1951.08,1264.67,1942.86Z" transform="translate(0 -19.22)"/><path d="M1306.22,1814.06l9.2-4.14,84.41,78.76.3-.13-3.39-115.22,9.2-4.14,46.9,104.24-6.42,2.9L1403.06,1780l-.29.13,3.64,114.22-6.42,2.89-83.51-78.29-.29.13,43.36,96.36-6.43,2.89Z" transform="translate(0 -19.22)"/><path d="M1478.75,1725.36l39.8,55.79c8,11.21,27,32.87,53.83,13.71,22.81-16.27,20.92-35.18,5.86-56.29l-39.79-55.79,5.74-4.09,39.79,55.79c15.8,22.16,19.83,45.44-8.07,65.34-33.1,23.61-54.27-2.2-63.1-14.58L1473,1729.46Z" transform="translate(0 -19.22)"/><path d="M1564.66,1662.06l6.46-6,124.25,27.77.24-.22-71.32-76.88,5.16-4.79,77.75,83.8-6.11,5.66-125.15-28-.23.22,71.86,77.47-5.16,4.79Z" transform="translate(0 -19.22)"/><path d="M1647.18,1581.62l4.75-5.21,84.52,77-4.74,5.21Z" transform="translate(0 -19.22)"/><path d="M1667.38,1569.77l-4.77-3.77,54.29-68.72,4.77,3.77-25,31.66,84.92,67.09-4.36,5.53-84.93-67.09Z" transform="translate(0 -19.22)"/><path d="M1766.11,1419.94l4.19-6.63,31.65,74.32,40.48,25.55-3.76,6-40.48-25.55-80.54,3.11,4.28-6.77,73.22-2.62Z" transform="translate(0 -19.22)"/><path d="M1883.1,1473.54c.4-5.07-6.67-9.84-10.46-11.91l-1.61,2.95-14.47-7.91,3.91-7.16,14.47,7.9c7.45,4.07,14,10.4,12.79,18.66Z" transform="translate(0 -19.22)"/><path d="M1869.68,1266.33c-18.58-6.09-32.88,4.29-40.27,24.09-4.54,12.15-5.88,31.3,11.82,37.91,17.24,6.44,26.93-10.79,37.45-27.54s22.07-33.46,43.37-25.5c22.19,8.29,22.19,32.55,16.08,48.9-9.35,25-27.32,41.58-54.8,31l2.46-6.6c22.89,10.09,38.75-5.35,46.64-26.5,4.82-12.9,5.75-33.23-12.85-40.17-18.15-6.78-28.13,10.34-38.71,27.24-10.53,16.74-21.71,33.42-42.11,25.8s-21.38-29.69-15-46.64c8.34-22.35,24.5-36.31,48.44-28.56Z" transform="translate(0 -19.22)"/><path d="M1851.58,1237.08l-5.9-1.5,21.68-84.86,5.89,1.51-10,39.09,104.86,26.79-1.75,6.82-104.86-26.78Z" transform="translate(0 -19.22)"/><path d="M1870,1136.64l6.76-47.23c2.84-19.81,12.42-34.78,34.29-31.65,15.21,2.18,25.15,13,25.53,28.4l.32,0c4.31-16.52,15.52-19.13,27.4-18.56s24.3,4.29,31,.55l-1.11,7.77c-8.38,3.17-21-1.23-32.13-1.53-11.14-.13-20.79,4-23.62,23.8l-5.76,40.25,51.51,7.37-1,7Zm62.39-39.27c2.36-16.49-3.64-30-21.86-32.57-17.12-2.45-25.57,10.25-27.75,25.47l-5.75,40.26,49.6,7.09Z" transform="translate(0 -19.22)"/><path d="M1993.91,955.94l6.08.18-2.36,77.61-114.26-3.47,2.34-76.81,6.08.18-2.12,69.77,45.76,1.39,2-65.61,6.08.19-2,65.61,50.25,1.53Z" transform="translate(0 -19.22)"/><path d="M1885.31,934.25l-.75-8.77,98.36-80.84,0-.32-104.48,8.9-.6-7,113.9-9.7.7,8.3-99.11,81.38,0,.32,105.28-9,.6,7Z" transform="translate(0 -19.22)"/><path d="M1909.93,710.68l54.74-12,1.3,5.94-23.77,5.2.06.31c17.47,1.92,31.36,16.74,35.67,36.45,7.38,33.78-14.33,58.19-46.39,65.2-31.59,6.9-63.29-6.16-70.64-39.79-5-23,4.63-45.58,27.07-54.59l1.44,6.57c-18.11,9.37-27,26.23-22.6,46.57,6.6,30.18,35.39,40.44,63.23,34.36,28.46-6.22,48.57-26.68,41.87-57.33-5.81-26.59-27.61-39.36-54.74-32.29l9,41.14-5.94,1.3Z" transform="translate(0 -19.22)"/><path d="M1854.77,708.3l-5.75,2-28.5-82.8,5.76-2,13.12,38.14,102.34-35.21,2.29,6.66L1841.7,670.31Z" transform="translate(0 -19.22)"/><path d="M1864.51,583.1l51-24.08,3,6.37-103.35,48.85-3-6.37L1859,585.7l-31.2-66-46.9,22.17-3-6.37,103.35-48.85,3,6.37-51,24.08Z" transform="translate(0 -19.22)"/><path d="M1576.42,981.23l26.49-36.57,53,70.25-1.33-.25C1634.22,993.59,1605.12,983.69,1576.42,981.23Z" transform="translate(0 -19.22)" fill="#fa0"/><path d="M1263.48,1043.8s-54.89-69.54-81.82-125.78S1154.38,749.6,1124.33,698s-299.84-320-342.79-321.08,32.5,112.62,21,108.18S686.9,412.58,651.3,428.83,759.92,548.09,759.92,548.09s-107.11-28.69-129.87-8.25,102.17,79.09,102.17,79.09-114.1-29.13-133-3.64S723.35,724.87,723.35,724.87l316.86,228.56,115.42,99.24Z" transform="translate(0 -19.22)" fill="#cadfe5"/><path d="M1140.74,962c15.08,32.33,57.6,50.71,97.83,48.32,14.24,19.93,24.91,33.46,24.91,33.46l-107.85,8.87-115.42-99.24L723.35,724.87s-94.86-55.79-119.84-90.26C816.79,685,1043.88,729.56,1140.74,962Z" transform="translate(0 -19.22)" fill="#b6d0d6"/><path d="M1603.35,944.56s-33.3,45.33-84.75,116S1492,1215.66,1413.5,1298,1218,1402,1214.1,1402.77s-118.52,17-189.54,62.78-71.48,185.21-80.56,211-20.78,30.08-43.52,26.47-31.13-21-31.13-21-13,41.6-49,36.56-38.21-31.68-38.21-31.68-33,31.44-56.64,18-22.66-49.72-22.66-49.72-45.08,20.76-64.72-18.53,15.35-50.07,15.35-50.07-22.56-2.65-30.69-29.13,10.33-50.11,10.33-50.11-36.2-11-34.65-44.39,54.37-24.56,115.44-40.4,116.81-37.66,161.73-70.42,85.57-111.78,85.57-111.78-67.11,33-84.79,14.43S899,1208.27,899,1208.27s-58.63,34.41-82.19,5.91,16-67.25,16-67.25-84.63,18.4-101.83-8.33,54.45-70.68,54.45-70.68-114.53,50.25-131.7,18.5,67-78.12,67-78.12-157.16,47.47-168.16,16.54,119.57-86.3,119.57-86.3-194.83,23.71-198.67-11.62C468.3,899.87,622.66,869,622.66,869s-183.41-15.58-183.38-51.66,145.85-28.26,145.85-28.26-177-28.85-176.37-62S525.2,712.48,525.2,712.48,333,594.39,338.57,561.23s103.69,27.33,203,64.9,296.09,111,395.8,149.81S1103,989.38,1151.19,1021.12s124.61,1.78,145.12-21.66,76-140.43,188-147.08S1603.35,944.56,1603.35,944.56Z" transform="translate(0 -19.22)" fill="#e1ebef"/><path d="M707.36,1539c-11.71,22.31,1.26,47.86,15.84,61.07,9.22,6.23,20.81,4,31.66-2.13,3.11-4.61,6.23-9.22,13.21-14.58-2.49,28.54,7.36,58.7,33.53,69.67,33.91,9.46,72.66-18.09,69-57.47l3.74,19.32c16.09,23.7,44.82,55.9,74.43,35.95-1.66,11.73-3.07,20.8-4.81,25.72-9.07,25.81-20.78,30.08-43.52,26.47s-31.13-21-31.13-21-13,41.6-49,36.56-38.21-31.68-38.21-31.68-33,31.44-56.64,18-22.66-49.72-22.66-49.72-45.08,20.76-64.72-18.53,15.35-50.07,15.35-50.07-22.56-2.65-30.69-29.13,10.33-50.11,10.33-50.11-36.2-11-34.65-44.39c1.16-25,31.13-26.33,71.8-32.09C649.39,1473,652,1536.05,707.36,1539Z" transform="translate(0 -19.22)" fill="#d4e3e8"/><path d="M973.2,1483.51c12.58-38.51,52.08-62.2,90-73.54,158.53-50.76,298-137.9,340.7-310.52,24-85.91,112.63-136.68,196.61-170.27a92.11,92.11,0,0,1,2.87,15.38s-33.3,45.33-84.75,116S1492,1215.66,1413.5,1298,1218,1402,1214.1,1402.77s-118.52,17-189.54,62.78c-25.74,16.61-42.19,45.5-53.16,76.82A111.9,111.9,0,0,1,973.2,1483.51Z" transform="translate(0 -19.22)" fill="#f5f7f7"/><g opacity="0.69"><path d="M1183.59,1303.82c35-26.5,70.64-48.13,100.54-81.1,30.7-33.86,53.81-74.46,70.53-116.85,4.65-11.79,22.56-5.6,18.63,6.54-14.72,45.42-40,85.41-72.81,120-30,31.58-71.73,65.06-115.16,74.94-1.9.43-3.35-2.29-1.73-3.52Z" transform="translate(0 -19.22)" fill="#c1d6db"/><path d="M1228.12,1251.75c30.23-35.13,58.17-71.89,81.5-112,6.13-10.53,22.27.23,15.75,10.64-25,39.94-54.37,76.72-89.84,107.89-4.1,3.6-11.19-2.14-7.41-6.53Z" transform="translate(0 -19.22)" fill="#c1d6db"/><path d="M1038.8,955.61A345.93,345.93,0,0,0,914.29,833.25c-54.8-31.34-117.25-43.3-178-57.44-13.08-3-8.44-26,4.9-23.27C806,765.93,872,782.19,928.74,817.5c51.78,32.25,92.31,79,118.82,133.76,2.78,5.74-5.57,9.68-8.76,4.35Z" transform="translate(0 -19.22)" fill="#c1d6db"/><path d="M992.9,935.68c-42.44-48.71-93.33-81.46-153-104.95-10.39-4.09-5-19.61,5.74-16.37C908.13,833.34,963,877.73,999,931.61c2.36,3.53-3.4,7.14-6.08,4.07Z" transform="translate(0 -19.22)" fill="#c1d6db"/><path d="M845.86,1411.76c-38.32,29.39-92.73,63.91-143.3,56.4-13.77-2.05-11.88-24,1.67-21.52,45.91,8.46,97.42-21.19,136.64-42.33,4.45-2.4,9.09,4.3,5,7.45Z" transform="translate(0 -19.22)" fill="#c1d6db"/><path d="M828.79,1460.46c-24.28,18.51-50.46,34.6-81.67,36.5-13.91.85-15.26-19-1.09-19.17,27.82-.26,52.18-14.36,75-28.88,6.68-4.24,14,6.76,7.74,11.55Z" transform="translate(0 -19.22)" fill="#c1d6db"/></g><path d="M1091.52,742.76c-9.36-48.87-48.63-88.75-86.29-118.67-33.41-26.55-70.29-47.64-106.9-69.35-10.87-6.45.12-22.47,10.95-16.2C984.94,582.3,1088.61,645.05,1100.57,741c.73,5.83-7.93,7.64-9,1.75Z" transform="translate(0 -19.22)" fill="#adc5c9"/><path d="M1051.14,706.5c-24.22-39.67-64.57-56.8-104.64-76.24-10.43-5.06-5-22.19,6.12-17.41,44.12,19,87.16,44.32,111.41,87.25,4.61,8.15-8.13,14.19-12.89,6.4Z" transform="translate(0 -19.22)" fill="#adc5c9"/><path d="M1494.33,942.68a18.09,18.09,0,1,0,14.31-21.2A18.08,18.08,0,0,0,1494.33,942.68Z" transform="translate(0 -19.22)"/><path d="M1492.88,409.44c12.48,15.45-20.52,76.78-64.64,102.53-17.87,10.44-28.36,9.65-50.66,23.66-26.85,16.87-44.41,38.59-54.92,54-3.45-14.21-10.71-53.55,12.22-95.21C1374.19,423,1477.24,390.08,1492.88,409.44Z" transform="translate(0 -19.22)" fill="#6f8c30"/><path d="M1008.74,188.78c-7-18.58-76.63-21.08-121.14,4-18,10.16-22.65,19.61-46,31.78-28.12,14.65-55.74,18.83-74.34,20.12,10.51,10.16,40.8,36.29,88.34,37.54C937.06,284.36,1017.55,212.06,1008.74,188.78Z" transform="translate(0 -19.22)" fill="#6f8c30"/><path d="M1412.35,265c-14.6,13.46-78-15.45-106.54-57.78-11.58-17.16-11.48-27.68-26.92-49-18.59-25.69-41.42-41.79-57.48-51.26,13.95-4.38,52.73-14.2,95.8,6C1391,147.44,1430.65,248.12,1412.35,265Z" transform="translate(0 -19.22)" fill="#6f8c30"/><path d="M118.46,938.05c7.48-68.89-9-105.11-25.94-125.55-10.46-12.6-22.33-21-36.59-42.28-17.62-26.37-24.78-53.37-28.08-71.72C17.45,713.79-1.78,747.13.13,790.4,2.92,853.51,49.55,911.47,118.46,938.05Z" transform="translate(0 -19.22)" fill="#6f8c30"/><path d="M259.84,1423.81c-19.45-4-33-72.32-15.27-120.24,7.17-19.42,15.77-25.47,24.08-50.46,10-30.09,9.75-58,8.07-76.6,11.7,8.77,42.31,34.53,51.08,81.27C342.84,1337.88,284.23,1428.82,259.84,1423.81Z" transform="translate(0 -19.22)" fill="#6f8c30"/><path d="M507.89,1721.76c-50.94-42.58-88-48-112.65-44.73-17.4,2.3-29,9-54.87,10.76-31.63,2.2-58.62-5-76.19-11.25,7.58,15.74,26.81,49.63,66,69.7C384,1773.82,453.29,1764,507.89,1721.76Z" transform="translate(0 -19.22)" fill="#6f8c30"/><path d="M827.4,1992.06c-12.68-65.17-38-92.72-59.22-105.75-15-9.19-28.19-11.36-49.37-26.25-25.94-18.24-42.34-40.85-52-56.78-4,17-10.5,55.43,7.25,95.71C698.42,1954.33,758.42,1990.37,827.4,1992.06Z" transform="translate(0 -19.22)" fill="#6f8c30"/><path d="M1052.64,1630.25c15.35,49.4,38.89,74.22,58,87.8,21.41,15.18,37.82,16.65,70,36.61a296.27,296.27,0,0,1,59.55,48.85c1.41-18.76,1.35-56.58-20.73-93.73C1187.58,1656.16,1122.93,1626.07,1052.64,1630.25Z" transform="translate(0 -19.22)" fill="#6f8c30"/><path d="M1487.7,1682.62c53.09-39.87,66.79-74.69,69.25-99.46,1.73-17.47-2.09-30.33,2-55.88,5.08-31.3,18.25-55.94,28.35-71.62-17.06,3.8-54.45,14.78-82.93,48.35C1465.29,1550.11,1459.08,1619.83,1487.7,1682.62Z" transform="translate(0 -19.22)" fill="#6f8c30"/><path d="M1828.41,1179.31c-66.37,2-97.62,22.64-113.89,41.48-11.47,13.28-15.74,26-33.84,44.51-22.17,22.67-47.12,35.23-64.4,42.24,16.13,6.72,53,19.26,95.64,8.21C1770.45,1300.57,1815.66,1247.13,1828.41,1179.31Z" transform="translate(0 -19.22)" fill="#6f8c30"/><path d="M1615.36,291c12.41,12.61,29.4,33.32,38.68,62.5,13.68,43-.94,67.88,7.63,100.53,6.62,25.21,28,58.54,96.87,88.28,4-12.43,24.63-80.66-12.9-151.78C1704.62,312.83,1626.83,293.66,1615.36,291Z" transform="translate(0 -19.22)" fill="#6f8c30"/></svg>