<?xml version="1.0" encoding="UTF-8" standalone="no"?>
<!DOCTYPE svg PUBLIC "-//W3C//DTD SVG 1.1//EN" "http://www.w3.org/Graphics/SVG/1.1/DTD/svg11.dtd">
<svg width="100%" height="100%" viewBox="0 0 2000 1973" version="1.1" xmlns="http://www.w3.org/2000/svg" xmlns:xlink="http://www.w3.org/1999/xlink" xml:space="preserve" xmlns:serif="http://www.serif.com/" style="fill-rule:evenodd;clip-rule:evenodd;stroke-linecap:round;stroke-linejoin:round;">
    <g transform="matrix(1,0,0,1,0,-19.22)">
        <path d="M1602.91,944.66L1655.91,1014.91C1655.91,1014.91 1619.81,1007.96 1607.11,1005.42C1594.41,1002.88 1556.75,1008.42 1556.75,1008.42L1602.91,944.66Z" style="fill:rgb(255,188,0);fill-rule:nonzero;"/>
    </g>
    <g transform="matrix(1,0,0,1,0,-19.22)">
        <path d="M1764,551.54C1803.44,627.289 1831.93,708.25 1848.64,792C1885.07,974.54 1865.28,1170 1779.59,1351.16C1573.09,1787.8 1051.72,1974.36 615.09,1767.86C190,1566.85 8.34,1059.26 209.39,634.15C416.47,196.27 993.2,61.21 1313.19,239.15C1415.73,296.15 1545.67,415.2 1605.72,595.26C1665.07,773.2 1628.42,927.52 1610.72,987.46C1605.1,1004.18 1599.72,1017.69 1595.96,1026.6" style="fill:none;fill-rule:nonzero;stroke:rgb(166,107,73);stroke-width:22.87px;"/>
    </g>
    <g transform="matrix(1,0,0,1,0,-19.22)">
        <path d="M94.87,525.86L125.07,477.73C143.21,448.83 174.91,438.45 211.84,461.62C244.09,481.86 257.68,513.48 236.31,547.55L206.11,595.67L94.87,525.86ZM200.94,558.23L214.67,536.36C223.59,522.14 223.39,503.07 198.78,487.62C176.34,473.54 157.11,472.36 141.78,496.73L130.78,514.23L200.94,558.23Z" style="fill:rgb(217,226,236);fill-rule:nonzero;"/>
    </g>
    <g transform="matrix(1,0,0,1,0,-19.22)">
        <path d="M176.22,401.94L195.32,380.17L233.21,413.39L268.36,373.31L230.46,340.08L249.56,318.31L348.31,404.89L329.21,426.66L286.61,389.32L251.47,429.4L294.07,466.75L275,488.53L176.22,401.94Z" style="fill:rgb(217,226,236);fill-rule:nonzero;"/>
    </g>
    <g transform="matrix(1,0,0,1,0,-19.22)">
        <path d="M302.62,270.3L325.23,251L447.89,319L425,338.56L398.45,322.76L361,354.7L372.1,383.7L349.78,402.7L302.62,270.3ZM352.77,333.41L378.77,311.28L334.88,285.37L334.6,285.61L352.77,333.41Z" style="fill:rgb(217,226,236);fill-rule:nonzero;"/>
    </g>
    <g transform="matrix(1,0,0,1,0,-19.22)">
        <path d="M379.54,207.91L429.39,175.62C456.95,157.78 478.93,168.3 490.53,186.21C502.13,204.12 502.74,228.49 475.18,246.33L449.63,262.88L475.23,302.4L450.92,318.14L379.54,207.91ZM437.44,244L456.33,231.77C467.63,224.45 476.09,215.46 467,201.41C457.91,187.36 446.23,191.41 434.93,198.73L416,211L437.44,244Z" style="fill:rgb(217,226,236);fill-rule:nonzero;"/>
    </g>
    <g transform="matrix(1,0,0,1,0,-19.22)">
        <path d="M555.69,163.81C543.21,137.14 549.69,109.73 578.16,97.48C599.85,88.16 624.79,93.85 634.75,117C642.38,134.74 637.1,148.62 628.97,161.93C620.84,175.24 609.85,187.93 606.44,203.86L662.53,179.74L671.4,200.35L584.3,237.81C572.7,210.36 584.46,191.49 599,168.81C606.46,157.2 617.56,143.81 611.48,129.21C606.69,118.05 596.18,114.16 585.84,118.61C571.61,124.73 573.36,141.4 578.73,153.9L555.69,163.81Z" style="fill:rgb(217,226,236);fill-rule:nonzero;"/>
    </g>
    <g transform="matrix(1,0,0,1,0,-19.22)">
        <path d="M677.36,60.87C702.01,53.17 727.62,62.12 742.6,110.06C757.91,159.06 741.96,180.98 717.31,188.68C693.01,196.28 667.4,187.32 652.1,138.34C637.12,90.41 653.06,68.46 677.36,60.87ZM710.89,168.14C731.31,161.76 721.89,131.74 717.59,117.87C713.59,105.05 704.21,75.03 683.78,81.41C663.71,87.69 673.09,117.71 677.1,130.52C681.43,144.39 690.82,174.42 710.89,168.14Z" style="fill:rgb(217,226,236);fill-rule:nonzero;"/>
    </g>
    <g transform="matrix(1,0,0,1,0,-19.22)">
        <path d="M749.29,93.69C742.62,65 754.65,39.54 785,33.47C808.15,28.84 831.37,39.58 836.31,64.3C840.09,83.24 832.05,95.72 821.31,107.05C810.57,118.38 797.2,128.56 790.57,143.39L850.44,131.39L854.84,153.39L761.84,171.96C756.18,142.7 771.61,126.68 790.54,107.52C800.33,97.75 814,87 811.06,71.41C808.68,59.51 799.2,53.52 788.17,55.72C772.98,58.72 771.23,75.43 773.89,88.78L749.29,93.69Z" style="fill:rgb(217,226,236);fill-rule:nonzero;"/>
    </g>
    <g transform="matrix(1,0,0,1,0,-19.22)">
        <path d="M923,147.49L896.9,149.75L889.68,66.56L857.34,69.37L855.63,49.76C873.81,48.55 890,40.87 891.05,21L911.82,19.2L923,147.49Z" style="fill:rgb(217,226,236);fill-rule:nonzero;"/>
    </g>
    <g transform="matrix(1,0,0,1,0,-19.22)">
        <path d="M1001.82,1928.79L1004.03,1985.11L997.03,1985.38L992.54,1871.16L1064.2,1868.34L1064.44,1874.42L999.78,1877L1001.58,1922.76L1059.81,1920.47L1060.05,1926.55L1001.82,1928.79Z" style="fill:rgb(217,226,236);fill-rule:nonzero;"/>
    </g>
    <g transform="matrix(1,0,0,1,0,-19.22)">
        <path d="M1081.12,1866.73L1128.3,1859.65C1148.09,1856.65 1165.17,1861.56 1168.45,1883.41C1170.73,1898.61 1163.23,1911.23 1148.57,1916.02L1148.57,1916.33C1165.64,1915.72 1171.35,1925.71 1174.21,1937.26C1177.07,1948.81 1177.08,1961.76 1182.57,1967.08L1174.82,1968.25C1169.38,1961.13 1169.96,1947.77 1167.06,1937.03C1163.99,1926.32 1157.28,1918.27 1137.49,1921.24L1097.27,1927.24L1104.99,1978.7L1097.99,1979.7L1081.12,1866.73ZM1136.64,1915.22C1153.1,1912.75 1164.29,1903.14 1161.55,1884.93C1158.99,1867.83 1144.4,1863.38 1129.2,1865.66L1088.99,1871.66L1096.42,1921.21L1136.64,1915.22Z" style="fill:rgb(217,226,236);fill-rule:nonzero;"/>
    </g>
    <g transform="matrix(1,0,0,1,0,-19.22)">
        <path d="M1266.34,1948.71C1233.39,1958.12 1206.74,1938.26 1197.56,1906.08C1188.38,1873.9 1200.56,1842.97 1233.46,1833.56C1266.25,1824.2 1292.9,1844.06 1302.08,1876.24C1311.26,1908.42 1299.13,1939.35 1266.34,1948.71ZM1264.67,1942.86C1293.3,1934.69 1303.36,1906.34 1295.31,1878.17C1287.26,1850 1263.76,1831.24 1235.13,1839.41C1206.34,1847.63 1196.29,1875.98 1204.33,1904.15C1212.37,1932.32 1235.88,1951.08 1264.67,1942.86Z" style="fill:rgb(217,226,236);fill-rule:nonzero;"/>
    </g>
    <g transform="matrix(1,0,0,1,0,-19.22)">
        <path d="M1306.22,1814.06L1315.42,1809.92L1399.83,1888.68L1400.13,1888.55L1396.74,1773.33L1405.94,1769.19L1452.84,1873.43L1446.42,1876.33L1403.06,1780L1402.77,1780.13L1406.41,1894.35L1399.99,1897.24L1316.48,1818.95L1316.19,1819.08L1359.55,1915.44L1353.12,1918.33L1306.22,1814.06Z" style="fill:rgb(217,226,236);fill-rule:nonzero;"/>
    </g>
    <g transform="matrix(1,0,0,1,0,-19.22)">
        <path d="M1478.75,1725.36L1518.55,1781.15C1526.55,1792.36 1545.55,1814.02 1572.38,1794.86C1595.19,1778.59 1593.3,1759.68 1578.24,1738.57L1538.45,1682.78L1544.19,1678.69L1583.98,1734.48C1599.78,1756.64 1603.81,1779.92 1575.91,1799.82C1542.81,1823.43 1521.64,1797.62 1512.81,1785.24L1473,1729.46L1478.75,1725.36Z" style="fill:rgb(217,226,236);fill-rule:nonzero;"/>
    </g>
    <g transform="matrix(1,0,0,1,0,-19.22)">
        <path d="M1564.66,1662.06L1571.12,1656.06L1695.37,1683.83L1695.61,1683.61L1624.29,1606.73L1629.45,1601.94L1707.2,1685.74L1701.09,1691.4L1575.94,1663.4L1575.71,1663.62L1647.57,1741.09L1642.41,1745.88L1564.66,1662.06Z" style="fill:rgb(217,226,236);fill-rule:nonzero;"/>
    </g>
    <g transform="matrix(1,0,0,1,0,-19.22)">
        <path d="M1647.18,1581.62L1651.93,1576.41L1736.45,1653.41L1731.71,1658.62L1647.18,1581.62Z" style="fill:rgb(217,226,236);fill-rule:nonzero;"/>
    </g>
    <g transform="matrix(1,0,0,1,0,-19.22)">
        <path d="M1667.38,1569.77L1662.61,1566L1716.9,1497.28L1721.67,1501.05L1696.67,1532.71L1781.59,1599.8L1777.23,1605.33L1692.3,1538.24L1667.38,1569.77Z" style="fill:rgb(217,226,236);fill-rule:nonzero;"/>
    </g>
    <g transform="matrix(1,0,0,1,0,-19.22)">
        <path d="M1766.11,1419.94L1770.3,1413.31L1801.95,1487.63L1842.43,1513.18L1838.67,1519.18L1798.19,1493.63L1717.65,1496.74L1721.93,1489.97L1795.15,1487.35L1766.11,1419.94Z" style="fill:rgb(217,226,236);fill-rule:nonzero;"/>
    </g>
    <g transform="matrix(1,0,0,1,0,-19.22)">
        <path d="M1883.1,1473.54C1883.5,1468.47 1876.43,1463.7 1872.64,1461.63L1871.03,1464.58L1856.56,1456.67L1860.47,1449.51L1874.94,1457.41C1882.39,1461.48 1888.94,1467.81 1887.73,1476.07L1883.1,1473.54Z" style="fill:rgb(217,226,236);fill-rule:nonzero;"/>
    </g>
    <g transform="matrix(1,0,0,1,0,-19.22)">
        <path d="M1869.68,1266.33C1851.1,1260.24 1836.8,1270.62 1829.41,1290.42C1824.87,1302.57 1823.53,1321.72 1841.23,1328.33C1858.47,1334.77 1868.16,1317.54 1878.68,1300.79C1889.2,1284.04 1900.75,1267.33 1922.05,1275.29C1944.24,1283.58 1944.24,1307.84 1938.13,1324.19C1928.78,1349.19 1910.81,1365.77 1883.33,1355.19L1885.79,1348.59C1908.68,1358.68 1924.54,1343.24 1932.43,1322.09C1937.25,1309.19 1938.18,1288.86 1919.58,1281.92C1901.43,1275.14 1891.45,1292.26 1880.87,1309.16C1870.34,1325.9 1859.16,1342.58 1838.76,1334.96C1818.36,1327.34 1817.38,1305.27 1823.76,1288.32C1832.1,1265.97 1848.26,1252.01 1872.2,1259.76L1869.68,1266.33Z" style="fill:rgb(217,226,236);fill-rule:nonzero;"/>
    </g>
    <g transform="matrix(1,0,0,1,0,-19.22)">
        <path d="M1851.58,1237.08L1845.68,1235.58L1867.36,1150.72L1873.25,1152.23L1863.25,1191.32L1968.11,1218.11L1966.36,1224.93L1861.5,1198.15L1851.58,1237.08Z" style="fill:rgb(217,226,236);fill-rule:nonzero;"/>
    </g>
    <g transform="matrix(1,0,0,1,0,-19.22)">
        <path d="M1870,1136.64L1876.76,1089.41C1879.6,1069.6 1889.18,1054.63 1911.05,1057.76C1926.26,1059.94 1936.2,1070.76 1936.58,1086.16L1936.9,1086.16C1941.21,1069.64 1952.42,1067.03 1964.3,1067.6C1976.18,1068.17 1988.6,1071.89 1995.3,1068.15L1994.19,1075.92C1985.81,1079.09 1973.19,1074.69 1962.06,1074.39C1950.92,1074.26 1941.27,1078.39 1938.44,1098.19L1932.68,1138.44L1984.19,1145.81L1983.19,1152.81L1870,1136.64ZM1932.39,1097.37C1934.75,1080.88 1928.75,1067.37 1910.53,1064.8C1893.41,1062.35 1884.96,1075.05 1882.78,1090.27L1877.03,1130.53L1926.63,1137.62L1932.39,1097.37Z" style="fill:rgb(217,226,236);fill-rule:nonzero;"/>
    </g>
    <g transform="matrix(1,0,0,1,0,-19.22)">
        <path d="M1993.91,955.94L1999.99,956.12L1997.63,1033.73L1883.37,1030.26L1885.71,953.45L1891.79,953.63L1889.67,1023.4L1935.43,1024.79L1937.43,959.18L1943.51,959.37L1941.51,1024.98L1991.76,1026.51L1993.91,955.94Z" style="fill:rgb(217,226,236);fill-rule:nonzero;"/>
    </g>
    <g transform="matrix(1,0,0,1,0,-19.22)">
        <path d="M1885.31,934.25L1884.56,925.48L1982.92,844.64L1982.92,844.32L1878.44,853.22L1877.84,846.22L1991.74,836.52L1992.44,844.82L1893.33,926.2L1893.33,926.52L1998.61,917.52L1999.21,924.52L1885.31,934.25Z" style="fill:rgb(217,226,236);fill-rule:nonzero;"/>
    </g>
    <g transform="matrix(1,0,0,1,0,-19.22)">
        <path d="M1909.93,710.68L1964.67,698.68L1965.97,704.62L1942.2,709.82L1942.26,710.13C1959.73,712.05 1973.62,726.87 1977.93,746.58C1985.31,780.36 1963.6,804.77 1931.54,811.78C1899.95,818.68 1868.25,805.62 1860.9,771.99C1855.9,748.99 1865.53,726.41 1887.97,717.4L1889.41,723.97C1871.3,733.34 1862.41,750.2 1866.81,770.54C1873.41,800.72 1902.2,810.98 1930.04,804.9C1958.5,798.68 1978.61,778.22 1971.91,747.57C1966.1,720.98 1944.3,708.21 1917.17,715.28L1926.17,756.42L1920.23,757.72L1909.93,710.68Z" style="fill:rgb(217,226,236);fill-rule:nonzero;"/>
    </g>
    <g transform="matrix(1,0,0,1,0,-19.22)">
        <path d="M1854.77,708.3L1849.02,710.3L1820.52,627.5L1826.28,625.5L1839.4,663.64L1941.74,628.43L1944.03,635.09L1841.7,670.31L1854.77,708.3Z" style="fill:rgb(217,226,236);fill-rule:nonzero;"/>
    </g>
    <g transform="matrix(1,0,0,1,0,-19.22)">
        <path d="M1864.51,583.1L1915.51,559.02L1918.51,565.39L1815.16,614.24L1812.16,607.87L1859,585.7L1827.8,519.7L1780.9,541.87L1777.9,535.5L1881.25,486.65L1884.25,493.02L1833.25,517.1L1864.51,583.1Z" style="fill:rgb(217,226,236);fill-rule:nonzero;"/>
    </g>
    <g transform="matrix(1,0,0,1,0,-19.22)">
        <path d="M1576.42,981.23L1602.91,944.66L1655.91,1014.91L1654.58,1014.66C1634.22,993.59 1605.12,983.69 1576.42,981.23Z" style="fill:rgb(255,170,0);fill-rule:nonzero;"/>
    </g>
    <g transform="matrix(1,0,0,1,0,-19.22)">
        <path d="M1263.48,1043.8C1263.48,1043.8 1208.59,974.26 1181.66,918.02C1154.73,861.78 1154.38,749.6 1124.33,698C1094.28,646.4 824.49,378 781.54,376.92C738.59,375.84 814.04,489.54 802.54,485.1C791.04,480.66 686.9,412.58 651.3,428.83C615.7,445.08 759.92,548.09 759.92,548.09C759.92,548.09 652.81,519.4 630.05,539.84C607.29,560.28 732.22,618.93 732.22,618.93C732.22,618.93 618.12,589.8 599.22,615.29C580.32,640.78 723.35,724.87 723.35,724.87L1040.21,953.43L1155.63,1052.67L1263.48,1043.8Z" style="fill:rgb(202,223,229);fill-rule:nonzero;"/>
    </g>
    <g transform="matrix(1,0,0,1,0,-19.22)">
        <path d="M1140.74,962C1155.82,994.33 1198.34,1012.71 1238.57,1010.32C1252.81,1030.25 1263.48,1043.78 1263.48,1043.78L1155.63,1052.65L1040.21,953.41L723.35,724.87C723.35,724.87 628.49,669.08 603.51,634.61C816.79,685 1043.88,729.56 1140.74,962Z" style="fill:rgb(182,208,214);fill-rule:nonzero;"/>
    </g>
    <g transform="matrix(1,0,0,1,0,-19.22)">
        <path d="M1603.35,944.56C1603.35,944.56 1570.05,989.89 1518.6,1060.56C1467.15,1131.23 1492,1215.66 1413.5,1298C1335,1380.34 1218,1402 1214.1,1402.77C1210.2,1403.54 1095.58,1419.77 1024.56,1465.55C953.54,1511.33 953.08,1650.76 944,1676.55C934.92,1702.34 923.22,1706.63 900.48,1703.02C877.74,1699.41 869.35,1682.02 869.35,1682.02C869.35,1682.02 856.35,1723.62 820.35,1718.58C784.35,1713.54 782.14,1686.9 782.14,1686.9C782.14,1686.9 749.14,1718.34 725.5,1704.9C701.86,1691.46 702.84,1655.18 702.84,1655.18C702.84,1655.18 657.76,1675.94 638.12,1636.65C618.48,1597.36 653.47,1586.58 653.47,1586.58C653.47,1586.58 630.91,1583.93 622.78,1557.45C614.65,1530.97 633.11,1507.34 633.11,1507.34C633.11,1507.34 596.91,1496.34 598.46,1462.95C600.01,1429.56 652.83,1438.39 713.9,1422.55C774.97,1406.71 830.71,1384.89 875.63,1352.13C920.55,1319.37 961.2,1240.35 961.2,1240.35C961.2,1240.35 894.09,1273.35 876.41,1254.78C858.73,1236.21 899,1208.27 899,1208.27C899,1208.27 840.37,1242.68 816.81,1214.18C793.25,1185.68 832.81,1146.93 832.81,1146.93C832.81,1146.93 748.18,1165.33 730.98,1138.6C713.78,1111.87 785.43,1067.92 785.43,1067.92C785.43,1067.92 670.9,1118.17 653.73,1086.42C636.56,1054.67 720.73,1008.3 720.73,1008.3C720.73,1008.3 563.57,1055.77 552.57,1024.84C541.57,993.91 672.14,938.54 672.14,938.54C672.14,938.54 477.31,962.25 473.47,926.92C468.3,899.87 622.66,869 622.66,869C622.66,869 439.25,853.42 439.28,817.34C439.31,781.26 585.13,789.08 585.13,789.08C585.13,789.08 408.13,760.23 408.76,727.08C409.39,693.93 525.2,712.48 525.2,712.48C525.2,712.48 333,594.39 338.57,561.23C344.14,528.07 442.26,588.56 541.57,626.13C640.88,663.7 837.66,737.13 937.37,775.94C1037.08,814.75 1103,989.38 1151.19,1021.12C1199.38,1052.86 1275.8,1022.9 1296.31,999.46C1316.82,976.02 1372.31,859.03 1484.31,852.38C1596.31,845.73 1603.35,944.56 1603.35,944.56Z" style="fill:rgb(225,235,239);fill-rule:nonzero;"/>
    </g>
    <g transform="matrix(1,0,0,1,0,-19.22)">
        <path d="M707.36,1539C695.65,1561.31 708.62,1586.86 723.2,1600.07C732.42,1606.3 744.01,1604.07 754.86,1597.94C757.97,1593.33 761.09,1588.72 768.07,1583.36C765.58,1611.9 775.43,1642.06 801.6,1653.03C835.51,1662.49 874.26,1634.94 870.6,1595.56L874.34,1614.88C890.43,1638.58 919.16,1670.78 948.77,1650.83C947.11,1662.56 945.7,1671.63 943.96,1676.55C934.89,1702.36 923.18,1706.63 900.44,1703.02C877.7,1699.41 869.31,1682.02 869.31,1682.02C869.31,1682.02 856.31,1723.62 820.31,1718.58C784.31,1713.54 782.1,1686.9 782.1,1686.9C782.1,1686.9 749.1,1718.34 725.46,1704.9C701.82,1691.46 702.8,1655.18 702.8,1655.18C702.8,1655.18 657.72,1675.94 638.08,1636.65C618.44,1597.36 653.43,1586.58 653.43,1586.58C653.43,1586.58 630.87,1583.93 622.74,1557.45C614.61,1530.97 633.07,1507.34 633.07,1507.34C633.07,1507.34 596.87,1496.34 598.42,1462.95C599.58,1437.95 629.55,1436.62 670.22,1430.86C649.39,1473 652,1536.05 707.36,1539Z" style="fill:rgb(212,227,232);fill-rule:nonzero;"/>
    </g>
    <g transform="matrix(1,0,0,1,0,-19.22)">
        <path d="M973.2,1483.51C985.78,1445 1025.28,1421.31 1063.2,1409.97C1221.73,1359.21 1361.2,1272.07 1403.9,1099.45C1427.9,1013.54 1516.53,962.77 1600.51,929.18C1601.9,934.216 1602.86,939.361 1603.38,944.56C1603.9,949.759 1570.08,989.89 1518.63,1060.56C1467.18,1131.23 1492,1215.66 1413.5,1298C1335,1380.34 1218,1402 1214.1,1402.77C1210.2,1403.54 1095.58,1419.77 1024.56,1465.55C998.82,1482.16 982.37,1511.05 971.4,1542.37C966.734,1522.94 967.356,1502.62 973.2,1483.51Z" style="fill:rgb(245,247,247);fill-rule:nonzero;"/>
    </g>
    <g opacity="0.69">
        <g transform="matrix(1,0,0,1,0,-19.22)">
            <path d="M1183.59,1303.82C1218.59,1277.32 1254.23,1255.69 1284.13,1222.72C1314.83,1188.86 1337.94,1148.26 1354.66,1105.87C1359.31,1094.08 1377.22,1100.27 1373.29,1112.41C1358.57,1157.83 1333.29,1197.82 1300.48,1232.41C1270.48,1263.99 1228.75,1297.47 1185.32,1307.35C1183.42,1307.78 1181.97,1305.06 1183.59,1303.83L1183.59,1303.82Z" style="fill:rgb(193,214,219);fill-rule:nonzero;"/>
        </g>
        <g transform="matrix(1,0,0,1,0,-19.22)">
            <path d="M1228.12,1251.75C1258.35,1216.62 1286.29,1179.86 1309.62,1139.75C1315.75,1129.22 1331.89,1139.98 1325.37,1150.39C1300.37,1190.33 1271,1227.11 1235.53,1258.28C1231.43,1261.88 1224.34,1256.14 1228.12,1251.75Z" style="fill:rgb(193,214,219);fill-rule:nonzero;"/>
        </g>
        <g transform="matrix(1,0,0,1,0,-19.22)">
            <path d="M1038.8,955.61C1008.44,904.853 965.568,862.72 914.29,833.25C859.49,801.91 797.04,789.95 736.29,775.81C723.21,772.81 727.85,749.81 741.19,752.54C806,765.93 872,782.19 928.74,817.5C980.52,849.75 1021.05,896.5 1047.56,951.26C1050.34,957 1041.99,960.94 1038.8,955.61Z" style="fill:rgb(193,214,219);fill-rule:nonzero;"/>
        </g>
        <g transform="matrix(1,0,0,1,0,-19.22)">
            <path d="M992.9,935.68C950.46,886.97 899.57,854.22 839.9,830.73C829.51,826.64 834.9,811.12 845.64,814.36C908.13,833.34 963,877.73 999,931.61C1001.36,935.14 995.6,938.75 992.92,935.68L992.9,935.68Z" style="fill:rgb(193,214,219);fill-rule:nonzero;"/>
        </g>
        <g transform="matrix(1,0,0,1,0,-19.22)">
            <path d="M845.86,1411.76C807.54,1441.15 753.13,1475.67 702.56,1468.16C688.79,1466.11 690.68,1444.16 704.23,1446.64C750.14,1455.1 801.65,1425.45 840.87,1404.31C845.32,1401.91 849.96,1408.61 845.87,1411.76L845.86,1411.76Z" style="fill:rgb(193,214,219);fill-rule:nonzero;"/>
        </g>
        <g transform="matrix(1,0,0,1,0,-19.22)">
            <path d="M828.79,1460.46C804.51,1478.97 778.33,1495.06 747.12,1496.96C733.21,1497.81 731.86,1477.96 746.03,1477.79C773.85,1477.53 798.21,1463.43 821.03,1448.91C827.71,1444.67 835.03,1455.67 828.77,1460.46L828.79,1460.46Z" style="fill:rgb(193,214,219);fill-rule:nonzero;"/>
        </g>
    </g>
    <g transform="matrix(1,0,0,1,0,-19.22)">
        <path d="M1091.52,742.76C1082.16,693.89 1042.89,654.01 1005.23,624.09C971.82,597.54 934.94,576.45 898.33,554.74C887.46,548.29 898.45,532.27 909.28,538.54C984.94,582.3 1088.61,645.05 1100.57,741C1101.3,746.83 1092.64,748.64 1091.57,742.75L1091.52,742.76Z" style="fill:rgb(173,197,201);fill-rule:nonzero;"/>
    </g>
    <g transform="matrix(1,0,0,1,0,-19.22)">
        <path d="M1051.14,706.5C1026.92,666.83 986.57,649.7 946.5,630.26C936.07,625.2 941.5,608.07 952.62,612.85C996.74,631.85 1039.78,657.17 1064.03,700.1C1068.64,708.25 1055.9,714.29 1051.14,706.5Z" style="fill:rgb(173,197,201);fill-rule:nonzero;"/>
    </g>
    <g transform="matrix(1,0,0,1,0,-19.22)">
        <path d="M1494.33,942.68C1495.97,951.152 1503.46,957.328 1512.09,957.328C1522.01,957.328 1530.18,949.162 1530.18,939.238C1530.18,929.314 1522.01,921.148 1512.09,921.148C1510.93,921.148 1509.78,921.259 1508.64,921.48C1500.17,923.12 1494,930.604 1494,939.23C1494,940.388 1494.11,941.543 1494.33,942.68Z" style="fill-rule:nonzero;"/>
    </g>
    <g transform="matrix(1,0,0,1,0,-19.22)">
        <path d="M1492.88,409.44C1505.36,424.89 1472.36,486.22 1428.24,511.97C1410.37,522.41 1399.88,521.62 1377.58,535.63C1350.73,552.5 1333.17,574.22 1322.66,589.63C1319.21,575.42 1311.95,536.08 1334.88,494.42C1374.19,423 1477.24,390.08 1492.88,409.44Z" style="fill:rgb(111,140,48);fill-rule:nonzero;"/>
    </g>
    <g transform="matrix(1,0,0,1,0,-19.22)">
        <path d="M1412.35,265C1397.75,278.46 1334.35,249.55 1305.81,207.22C1294.23,190.06 1294.33,179.54 1278.89,158.22C1260.3,132.53 1237.47,116.43 1221.41,106.96C1235.36,102.58 1274.14,92.76 1317.21,112.96C1391,147.44 1430.65,248.12 1412.35,265Z" style="fill:rgb(111,140,48);fill-rule:nonzero;"/>
    </g>
    <g transform="matrix(1,0,0,1,0,-19.22)">
        <path d="M118.46,938.05C125.94,869.16 109.46,832.94 92.52,812.5C82.06,799.9 70.19,791.5 55.93,770.22C38.31,743.85 31.15,716.85 27.85,698.5C17.45,713.79 -1.78,747.13 0.13,790.4C2.92,853.51 49.55,911.47 118.46,938.05Z" style="fill:rgb(111,140,48);fill-rule:nonzero;"/>
    </g>
    <g transform="matrix(1,0,0,1,0,-19.22)">
        <path d="M259.84,1423.81C240.39,1419.81 226.84,1351.49 244.57,1303.57C251.74,1284.15 260.34,1278.1 268.65,1253.11C278.65,1223.02 278.4,1195.11 276.72,1176.51C288.42,1185.28 319.03,1211.04 327.8,1257.78C342.84,1337.88 284.23,1428.82 259.84,1423.81Z" style="fill:rgb(111,140,48);fill-rule:nonzero;"/>
    </g>
    <g transform="matrix(1,0,0,1,0,-19.22)">
        <path d="M507.89,1721.76C456.95,1679.18 419.89,1673.76 395.24,1677.03C377.84,1679.33 366.24,1686.03 340.37,1687.79C308.74,1689.99 281.75,1682.79 264.18,1676.54C271.76,1692.28 290.99,1726.17 330.18,1746.24C384,1773.82 453.29,1764 507.89,1721.76Z" style="fill:rgb(111,140,48);fill-rule:nonzero;"/>
    </g>
    <g transform="matrix(1,0,0,1,0,-19.22)">
        <path d="M827.4,1992.06C814.72,1926.89 789.4,1899.34 768.18,1886.31C753.18,1877.12 739.99,1874.95 718.81,1860.06C692.87,1841.82 676.47,1819.21 666.81,1803.28C662.81,1820.28 656.31,1858.71 674.06,1898.99C698.42,1954.33 758.42,1990.37 827.4,1992.06Z" style="fill:rgb(111,140,48);fill-rule:nonzero;"/>
    </g>
    <g transform="matrix(1,0,0,1,0,-19.22)">
        <path d="M1052.64,1630.25C1067.99,1679.65 1091.53,1704.47 1110.64,1718.05C1132.05,1733.23 1148.46,1734.7 1180.64,1754.66C1202.53,1768.28 1222.55,1784.7 1240.19,1803.51C1241.6,1784.75 1241.54,1746.93 1219.46,1709.78C1187.58,1656.16 1122.93,1626.07 1052.64,1630.25Z" style="fill:rgb(111,140,48);fill-rule:nonzero;"/>
    </g>
    <g transform="matrix(1,0,0,1,0,-19.22)">
        <path d="M1487.7,1682.62C1540.79,1642.75 1554.49,1607.93 1556.95,1583.16C1558.68,1565.69 1554.86,1552.83 1558.95,1527.28C1564.03,1495.98 1577.2,1471.34 1587.3,1455.66C1570.24,1459.46 1532.85,1470.44 1504.37,1504.01C1465.29,1550.11 1459.08,1619.83 1487.7,1682.62Z" style="fill:rgb(111,140,48);fill-rule:nonzero;"/>
    </g>
    <g transform="matrix(1,0,0,1,0,-19.22)">
        <path d="M1828.41,1179.31C1762.04,1181.31 1730.79,1201.95 1714.52,1220.79C1703.05,1234.07 1698.78,1246.79 1680.68,1265.3C1658.51,1287.97 1633.56,1300.53 1616.28,1307.54C1632.41,1314.26 1669.28,1326.8 1711.92,1315.75C1770.45,1300.57 1815.66,1247.13 1828.41,1179.31Z" style="fill:rgb(111,140,48);fill-rule:nonzero;"/>
    </g>
    <g transform="matrix(1,0,0,1,0,-19.22)">
        <path d="M1615.36,291C1627.77,303.61 1644.76,324.32 1654.04,353.5C1667.72,396.5 1653.1,421.38 1661.67,454.03C1668.29,479.24 1689.67,512.57 1758.54,542.31C1762.54,529.88 1783.17,461.65 1745.64,390.53C1704.62,312.83 1626.83,293.66 1615.36,291Z" style="fill:rgb(111,140,48);fill-rule:nonzero;"/>
    </g>
</svg>
