<svg xmlns="http://www.w3.org/2000/svg" width="1882.47" height="1901.55" viewBox="0 0 1882.47 1901.55" style=""><path d="M1764,551.54A903.41,903.41,0,0,1,1848.64,792c36.43,182.54,16.64,378-69.05,559.16-206.5,436.64-727.87,623.2-1164.5,416.7C190,1566.85,8.34,1059.26,209.39,634.15c207.08-437.88,783.81-572.94,1103.8-395,102.54,57,232.48,176.05,292.53,356.11,59.35,177.94,22.7,332.26,5,392.2-5.62,16.72-11,30.23-14.76,39.14" transform="translate(5 -95.66)" fill="none" stroke="#000" stroke-linecap="round" stroke-linejoin="round" stroke-width="22.87" class="MBuSqTVG_0"></path><path d="M1143.34,1035" transform="translate(5 -95.66)" fill="none" stroke="#000" stroke-miterlimit="10" stroke-width="10" class="MBuSqTVG_1"></path><path d="M1027.91,935.79" transform="translate(5 -95.66)" fill="none" stroke="#000" stroke-miterlimit="10" stroke-width="10" class="MBuSqTVG_2"></path><path d="M1251.19,1026.15s-54.9-69.54-81.83-125.78S1142.08,732,1112,680.31s-299.84-320-342.8-321.08,32.51,112.62,21,108.18S674.61,394.93,639,411.18,747.62,530.44,747.62,530.44s-107.1-28.69-129.87-8.25,102.17,79.09,102.17,79.09-114.1-29.13-133-3.64,78.46,75.14,78.46,75.14" transform="translate(5 -95.66)" fill="none" stroke="#000" stroke-miterlimit="10" stroke-width="10" class="MBuSqTVG_3"></path><path d="M1238.57,1010.34" transform="translate(5 -95.66)" fill="none" stroke="#000" stroke-miterlimit="10" stroke-width="10" class="MBuSqTVG_4"></path><path d="M1140.74,962" transform="translate(5 -95.66)" fill="none" stroke="#000" stroke-miterlimit="10" stroke-width="10" class="MBuSqTVG_5"></path><path d="M1603.35,944.56s-33.3,45.33-84.75,116S1492,1215.66,1413.5,1298,1218,1402,1214.1,1402.77s-118.52,17-189.54,62.78-71.48,185.21-80.56,211-20.78,30.08-43.52,26.47-31.13-21-31.13-21-13,41.6-49,36.56-38.21-31.68-38.21-31.68-33,31.44-56.64,18-22.66-49.72-22.66-49.72-45.08,20.76-64.72-18.53,15.35-50.07,15.35-50.07-22.56-2.65-30.69-29.13,10.33-50.11,10.33-50.11-36.2-11-34.65-44.39,54.37-24.56,115.44-40.4,116.81-37.66,161.73-70.42,85.57-111.78,85.57-111.78-67.11,33-84.79,14.43S899,1208.27,899,1208.27s-58.63,34.41-82.19,5.91,16-67.25,16-67.25-84.63,18.4-101.83-8.33,54.45-70.68,54.45-70.68-114.53,50.25-131.7,18.5,67-78.12,67-78.12-157.16,47.47-168.16,16.54,119.57-86.3,119.57-86.3-194.83,23.71-198.67-11.62C468.3,899.87,622.66,869,622.66,869s-183.41-15.58-183.38-51.66,145.85-28.26,145.85-28.26-177-28.85-176.37-62S525.2,712.48,525.2,712.48,333,594.39,338.57,561.23s103.69,27.33,203,64.9,296.09,111,395.8,149.81S1103,989.38,1151.19,1021.12s124.61,1.78,145.12-21.66,76-140.43,188-147.08S1603.35,944.56,1603.35,944.56Z" transform="translate(5 -95.66)" fill="none" stroke="#000" stroke-miterlimit="10" stroke-width="10" class="MBuSqTVG_6"></path><path d="M707.36,1539c-11.71,22.31,1.26,47.86,15.84,61.07,9.22,6.23,20.81,4,31.66-2.13,3.11-4.61,6.23-9.22,13.21-14.58-2.49,28.54,7.36,58.7,33.53,69.67,33.91,9.46,72.66-18.09,69-57.47l3.74,19.32c16.09,23.7,44.82,55.9,74.43,35.95-1.66,11.73-3.07,20.8-4.81,25.72-9.07,25.81-20.78,30.08-43.52,26.47s-31.13-21-31.13-21-13,41.6-49,36.56-38.21-31.68-38.21-31.68-33,31.44-56.64,18-22.66-49.72-22.66-49.72-45.08,20.76-64.72-18.53,15.35-50.07,15.35-50.07-22.56-2.65-30.69-29.13,10.33-50.11,10.33-50.11-36.2-11-34.65-44.39c1.16-25,31.13-26.33,71.8-32.09C649.39,1473,652,1536.05,707.36,1539Z" transform="translate(5 -95.66)" fill="none" stroke="#000" stroke-miterlimit="10" stroke-width="10" class="MBuSqTVG_7"></path><path d="M973.2,1483.51c12.58-38.51,52.08-62.2,90-73.54,158.53-50.76,298-137.9,340.7-310.52,24-85.91,112.63-136.68,196.61-170.27a92.11,92.11,0,0,1,2.87,15.38s-33.3,45.33-84.75,116S1492,1215.66,1413.5,1298,1218,1402,1214.1,1402.77s-118.52,17-189.54,62.78c-25.74,16.61-42.19,45.5-53.16,76.82A111.9,111.9,0,0,1,973.2,1483.51Z" transform="translate(5 -95.66)" fill="none" stroke="#000" stroke-miterlimit="10" stroke-width="10" class="MBuSqTVG_8"></path><g opacity="0.69"><path d="M1183.59,1303.82c35-26.5,70.64-48.13,100.54-81.1,30.7-33.86,53.81-74.46,70.53-116.85,4.65-11.79,22.56-5.6,18.63,6.54-14.72,45.42-40,85.41-72.81,120-30,31.58-71.73,65.06-115.16,74.94-1.9.43-3.35-2.29-1.73-3.52Z" transform="translate(5 -95.66)" fill="none" stroke="#000" stroke-miterlimit="10" stroke-width="10" class="MBuSqTVG_9"></path><path d="M1228.12,1251.75c30.23-35.13,58.17-71.89,81.5-112,6.13-10.53,22.27.23,15.75,10.64-25,39.94-54.37,76.72-89.84,107.89-4.1,3.6-11.19-2.14-7.41-6.53Z" transform="translate(5 -95.66)" fill="none" stroke="#000" stroke-miterlimit="10" stroke-width="10" class="MBuSqTVG_10"></path><path d="M1038.8,955.61A345.93,345.93,0,0,0,914.29,833.25c-54.8-31.34-117.25-43.3-178-57.44-13.08-3-8.44-26,4.9-23.27C806,765.93,872,782.19,928.74,817.5c51.78,32.25,92.31,79,118.82,133.76,2.78,5.74-5.57,9.68-8.76,4.35Z" transform="translate(5 -95.66)" fill="none" stroke="#000" stroke-miterlimit="10" stroke-width="10" class="MBuSqTVG_11"></path><path d="M992.9,935.68c-42.44-48.71-93.33-81.46-153-104.95-10.39-4.09-5-19.61,5.74-16.37C908.13,833.34,963,877.73,999,931.61c2.36,3.53-3.4,7.14-6.08,4.07Z" transform="translate(5 -95.66)" fill="none" stroke="#000" stroke-miterlimit="10" stroke-width="10" class="MBuSqTVG_12"></path><path d="M845.86,1411.76c-38.32,29.39-92.73,63.91-143.3,56.4-13.77-2.05-11.88-24,1.67-21.52,45.91,8.46,97.42-21.19,136.64-42.33,4.45-2.4,9.09,4.3,5,7.45Z" transform="translate(5 -95.66)" fill="none" stroke="#000" stroke-miterlimit="10" stroke-width="10" class="MBuSqTVG_13"></path><path d="M828.79,1460.46c-24.28,18.51-50.46,34.6-81.67,36.5-13.91.85-15.26-19-1.09-19.17,27.82-.26,52.18-14.36,75-28.88,6.68-4.24,14,6.76,7.74,11.55Z" transform="translate(5 -95.66)" fill="none" stroke="#000" stroke-miterlimit="10" stroke-width="10" class="MBuSqTVG_14"></path></g><path d="M1091.52,742.76c-9.36-48.87-48.63-88.75-86.29-118.67-33.41-26.55-70.29-47.64-106.9-69.35-10.87-6.45.12-22.47,10.95-16.2C984.94,582.3,1088.61,645.05,1100.57,741c.73,5.83-7.93,7.64-9,1.75Z" transform="translate(5 -95.66)" fill="none" stroke="#000" stroke-miterlimit="10" stroke-width="10" class="MBuSqTVG_15"></path><path d="M1051.14,706.5c-24.22-39.67-64.57-56.8-104.64-76.24-10.43-5.06-5-22.19,6.12-17.41,44.12,19,87.16,44.32,111.41,87.25,4.61,8.15-8.13,14.19-12.89,6.4Z" transform="translate(5 -95.66)" fill="none" stroke="#000" stroke-miterlimit="10" stroke-width="10" class="MBuSqTVG_16"></path><path d="M1494.33,942.68a18.09,18.09,0,1,0,14.31-21.2A18.08,18.08,0,0,0,1494.33,942.68Z" transform="translate(5 -95.66)" class="MBuSqTVG_17"></path><path d="M1602.91,944.66l53,70.25s-36.1-6.95-48.8-9.49-50.36,3-50.36,3Z" transform="translate(5 -95.66)" fill="none" stroke="#000" stroke-miterlimit="10" stroke-width="10" class="MBuSqTVG_18"></path><path d="M1576.42,981.23l26.49-36.57,53,70.25-1.33-.25C1634.22,993.59,1605.12,983.69,1576.42,981.23Z" transform="translate(5 -95.66)" fill="#fff" stroke="#000" stroke-miterlimit="10" stroke-width="10" class="MBuSqTVG_19"></path><path d="M1492.88,409.44c12.48,15.45-20.52,76.78-64.64,102.53-17.87,10.44-28.36,9.65-50.66,23.66-26.85,16.87-44.41,38.59-54.92,54-3.45-14.21-10.71-53.55,12.22-95.21C1374.19,423,1477.24,390.08,1492.88,409.44Z" transform="translate(5 -95.66)" fill="none" stroke="#000" stroke-miterlimit="10" stroke-width="10" class="MBuSqTVG_20"></path><path d="M1412.35,265c-14.6,13.46-78-15.45-106.54-57.78-11.58-17.16-11.48-27.68-26.92-49-18.59-25.69-41.42-41.79-57.48-51.26,13.95-4.38,52.73-14.2,95.8,6C1391,147.44,1430.65,248.12,1412.35,265Z" transform="translate(5 -95.66)" fill="none" stroke="#000" stroke-miterlimit="10" stroke-width="10" class="MBuSqTVG_21"></path><path d="M118.46,938.05c7.48-68.89-9-105.11-25.94-125.55-10.46-12.6-22.33-21-36.59-42.28-17.62-26.37-24.78-53.37-28.08-71.72C17.45,713.79-1.78,747.13.13,790.4,2.92,853.51,49.55,911.47,118.46,938.05Z" transform="translate(5 -95.66)" fill="none" stroke="#000" stroke-miterlimit="10" stroke-width="10" class="MBuSqTVG_22"></path><path d="M259.84,1423.81c-19.45-4-33-72.32-15.27-120.24,7.17-19.42,15.77-25.47,24.08-50.46,10-30.09,9.75-58,8.07-76.6,11.7,8.77,42.31,34.53,51.08,81.27C342.84,1337.88,284.23,1428.82,259.84,1423.81Z" transform="translate(5 -95.66)" fill="none" stroke="#000" stroke-miterlimit="10" stroke-width="10" class="MBuSqTVG_23"></path><path d="M507.89,1721.76c-50.94-42.58-88-48-112.65-44.73-17.4,2.3-29,9-54.87,10.76-31.63,2.2-58.62-5-76.19-11.25,7.58,15.74,26.81,49.63,66,69.7C384,1773.82,453.29,1764,507.89,1721.76Z" transform="translate(5 -95.66)" fill="none" stroke="#000" stroke-miterlimit="10" stroke-width="10" class="MBuSqTVG_24"></path><path d="M827.4,1992.06c-12.68-65.17-38-92.72-59.22-105.75-15-9.19-28.19-11.36-49.37-26.25-25.94-18.24-42.34-40.85-52-56.78-4,17-10.5,55.43,7.25,95.71C698.42,1954.33,758.42,1990.37,827.4,1992.06Z" transform="translate(5 -95.66)" fill="none" stroke="#000" stroke-miterlimit="10" stroke-width="10" class="MBuSqTVG_25"></path><path d="M1052.64,1630.25c15.35,49.4,38.89,74.22,58,87.8,21.41,15.18,37.82,16.65,70,36.61a296.27,296.27,0,0,1,59.55,48.85c1.41-18.76,1.35-56.58-20.73-93.73C1187.58,1656.16,1122.93,1626.07,1052.64,1630.25Z" transform="translate(5 -95.66)" fill="none" stroke="#000" stroke-miterlimit="10" stroke-width="10" class="MBuSqTVG_26"></path><path d="M1487.7,1682.62c53.09-39.87,66.79-74.69,69.25-99.46,1.73-17.47-2.09-30.33,2-55.88,5.08-31.3,18.25-55.94,28.35-71.62-17.06,3.8-54.45,14.78-82.93,48.35C1465.29,1550.11,1459.08,1619.83,1487.7,1682.62Z" transform="translate(5 -95.66)" fill="none" stroke="#000" stroke-miterlimit="10" stroke-width="10" class="MBuSqTVG_27"></path><path d="M1828.41,1179.31c-66.37,2-97.62,22.64-113.89,41.48-11.47,13.28-15.74,26-33.84,44.51-22.17,22.67-47.12,35.23-64.4,42.24,16.13,6.72,53,19.26,95.64,8.21C1770.45,1300.57,1815.66,1247.13,1828.41,1179.31Z" transform="translate(5 -95.66)" fill="none" stroke="#000" stroke-miterlimit="10" stroke-width="10" class="MBuSqTVG_28"></path><path d="M1615.36,291c12.41,12.61,29.4,33.32,38.68,62.5,13.68,43-.94,67.88,7.63,100.53,6.62,25.21,28,58.54,96.87,88.28,4-12.43,24.63-80.66-12.9-151.78C1704.62,312.83,1626.83,293.66,1615.36,291Z" transform="translate(5 -95.66)" fill="none" stroke="#000" stroke-miterlimit="10" stroke-width="10" class="MBuSqTVG_29"></path><style data-made-with="vivus-instant">.MBuSqTVG_0{stroke-dasharray:5748 5750;stroke-dashoffset:5749;animation:MBuSqTVG_draw 2000ms linear 0ms forwards;}.MBuSqTVG_1{stroke-dasharray:0 2;stroke-dashoffset:1;animation:MBuSqTVG_draw 2000ms linear 34ms forwards;}.MBuSqTVG_2{stroke-dasharray:0 2;stroke-dashoffset:1;animation:MBuSqTVG_draw 2000ms linear 68ms forwards;}.MBuSqTVG_3{stroke-dasharray:1836 1838;stroke-dashoffset:1837;animation:MBuSqTVG_draw 2000ms linear 103ms forwards;}.MBuSqTVG_4{stroke-dasharray:0 2;stroke-dashoffset:1;animation:MBuSqTVG_draw 2000ms linear 137ms forwards;}.MBuSqTVG_5{stroke-dasharray:0 2;stroke-dashoffset:1;animation:MBuSqTVG_draw 2000ms linear 172ms forwards;}.MBuSqTVG_6{stroke-dasharray:6073 6075;stroke-dashoffset:6074;animation:MBuSqTVG_draw 2000ms linear 206ms forwards;}.MBuSqTVG_7{stroke-dasharray:1301 1303;stroke-dashoffset:1302;animation:MBuSqTVG_draw 2000ms linear 241ms forwards;}.MBuSqTVG_8{stroke-dasharray:1881 1883;stroke-dashoffset:1882;animation:MBuSqTVG_draw 2000ms linear 275ms forwards;}.MBuSqTVG_9{stroke-dasharray:584 586;stroke-dashoffset:585;animation:MBuSqTVG_draw 2000ms linear 310ms forwards;}.MBuSqTVG_10{stroke-dasharray:324 326;stroke-dashoffset:325;animation:MBuSqTVG_draw 2000ms linear 344ms forwards;}.MBuSqTVG_11{stroke-dasharray:796 798;stroke-dashoffset:797;animation:MBuSqTVG_draw 2000ms linear 379ms forwards;}.MBuSqTVG_12{stroke-dasharray:422 424;stroke-dashoffset:423;animation:MBuSqTVG_draw 2000ms linear 413ms forwards;}.MBuSqTVG_13{stroke-dasharray:351 353;stroke-dashoffset:352;animation:MBuSqTVG_draw 2000ms linear 448ms forwards;}.MBuSqTVG_14{stroke-dasharray:225 227;stroke-dashoffset:226;animation:MBuSqTVG_draw 2000ms linear 482ms forwards;}.MBuSqTVG_15{stroke-dasharray:611 613;stroke-dashoffset:612;animation:MBuSqTVG_draw 2000ms linear 517ms forwards;}.MBuSqTVG_16{stroke-dasharray:327 329;stroke-dashoffset:328;animation:MBuSqTVG_draw 2000ms linear 551ms forwards;}.MBuSqTVG_17{stroke-dasharray:114 116;stroke-dashoffset:115;animation:MBuSqTVG_draw 2000ms linear 586ms forwards;}.MBuSqTVG_18{stroke-dasharray:268 270;stroke-dashoffset:269;animation:MBuSqTVG_draw 2000ms linear 620ms forwards;}.MBuSqTVG_19{stroke-dasharray:222 224;stroke-dashoffset:223;animation:MBuSqTVG_draw 2000ms linear 655ms forwards;}.MBuSqTVG_20{stroke-dasharray:553 555;stroke-dashoffset:554;animation:MBuSqTVG_draw 2000ms linear 689ms forwards;}.MBuSqTVG_21{stroke-dasharray:553 555;stroke-dashoffset:554;animation:MBuSqTVG_draw 2000ms linear 724ms forwards;}.MBuSqTVG_22{stroke-dasharray:563 565;stroke-dashoffset:564;animation:MBuSqTVG_draw 2000ms linear 758ms forwards;}.MBuSqTVG_23{stroke-dasharray:553 555;stroke-dashoffset:554;animation:MBuSqTVG_draw 2000ms linear 793ms forwards;}.MBuSqTVG_24{stroke-dasharray:546 548;stroke-dashoffset:547;animation:MBuSqTVG_draw 2000ms linear 827ms forwards;}.MBuSqTVG_25{stroke-dasharray:546 548;stroke-dashoffset:547;animation:MBuSqTVG_draw 2000ms linear 862ms forwards;}.MBuSqTVG_26{stroke-dasharray:556 558;stroke-dashoffset:557;animation:MBuSqTVG_draw 2000ms linear 896ms forwards;}.MBuSqTVG_27{stroke-dasharray:546 548;stroke-dashoffset:547;animation:MBuSqTVG_draw 2000ms linear 931ms forwards;}.MBuSqTVG_28{stroke-dasharray:546 548;stroke-dashoffset:547;animation:MBuSqTVG_draw 2000ms linear 965ms forwards;}.MBuSqTVG_29{stroke-dasharray:637 639;stroke-dashoffset:638;animation:MBuSqTVG_draw 2000ms linear 1000ms forwards;}@keyframes MBuSqTVG_draw{100%{stroke-dashoffset:0;}}@keyframes MBuSqTVG_fade{0%{stroke-opacity:1;}94.44444444444444%{stroke-opacity:1;}100%{stroke-opacity:0;}}</style></svg>