<?xml version="1.0" encoding="UTF-8" standalone="no"?>
<!DOCTYPE svg PUBLIC "-//W3C//DTD SVG 1.1//EN" "http://www.w3.org/Graphics/SVG/1.1/DTD/svg11.dtd">
<svg width="100%" height="100%" viewBox="0 0 512 512" version="1.1" xmlns="http://www.w3.org/2000/svg" xmlns:xlink="http://www.w3.org/1999/xlink" xml:space="preserve" xmlns:serif="http://www.serif.com/" style="fill-rule:evenodd;clip-rule:evenodd;stroke-linejoin:round;stroke-miterlimit:2;">
    <g transform="matrix(0.1,0,0,-0.1,0,512)">
        <path d="M2240,5105C1851,5057 1474,4917 1149,4701C645,4366 278,3876 106,3306C65,3174 25,2973 10,2838C-3,2713 -3,2407 10,2282C118,1268 835,402 1814,106C1946,65 2147,25 2282,10C2407,-3 2713,-3 2838,10C3430,73 3979,342 4401,776C4690,1075 4895,1421 5014,1814C5088,2057 5120,2282 5120,2560C5120,2769 5110,2884 5074,3065C4893,3985 4207,4741 3306,5014C3174,5055 2973,5095 2838,5110C2707,5124 2369,5121 2240,5105ZM2877,4770C3122,4734 3336,4667 3555,4558C4131,4270 4559,3744 4721,3123C4814,2768 4814,2352 4721,1997C4518,1219 3901,602 3123,399C2768,306 2352,306 1997,399C1462,538 991,879 687,1345C560,1540 458,1772 399,1997C306,2352 306,2768 399,3123C624,3986 1348,4636 2233,4770C2407,4796 2701,4796 2877,4770Z" style="fill:rgb(193,225,193);fill-rule:nonzero;"/>
        <path d="M2472,3820C2454,3809 2431,3786 2420,3768C2401,3736 2400,3715 2400,2865L2400,1995L2058,2337C1689,2703 1682,2709 1597,2695C1539,2685 1475,2621 1465,2563C1451,2476 1447,2480 1954,1972C2213,1712 2437,1492 2452,1484C2488,1465 2632,1465 2668,1484C2683,1492 2907,1712 3167,1972C3677,2483 3672,2478 3655,2566C3645,2621 3579,2685 3523,2695C3438,2709 3431,2703 3063,2337L2720,1995L2720,2865C2720,3715 2719,3736 2700,3768C2670,3816 2625,3840 2560,3840C2523,3840 2494,3834 2472,3820Z" style="fill:rgb(193,225,193);fill-rule:nonzero;"/>
    </g>
</svg>
