<?xml version="1.0" encoding="UTF-8" standalone="no"?>
<!DOCTYPE svg PUBLIC "-//W3C//DTD SVG 1.1//EN" "http://www.w3.org/Graphics/SVG/1.1/DTD/svg11.dtd">
<svg width="100%" height="100%" viewBox="0 0 921 1068" version="1.1" xmlns="http://www.w3.org/2000/svg" xmlns:xlink="http://www.w3.org/1999/xlink" xml:space="preserve" xmlns:serif="http://www.serif.com/" style="fill-rule:evenodd;clip-rule:evenodd;stroke-linejoin:round;stroke-miterlimit:2;">
    <g transform="matrix(1,0,0,1,-1,-1.62)">
        <path d="M1,481C1.63,474.75 2.35,468.5 2.88,462.23C7.667,405.236 23.262,349.671 48.83,298.51C77.116,241.452 116.962,190.896 165.83,150.06C166.46,149.53 167.07,148.97 168.18,147.99C139.46,105 110.8,62 81.86,18.57L107.16,1.62L192.21,129.14C291.21,59.86 400.56,31.68 520.21,46.63C616.31,58.63 700.37,98.2 771.67,163.69C910.67,291.37 934.37,460.05 915.41,572.3L885.06,568.73C889.56,534.06 891.73,499.73 888.06,465.02L474.17,465.02L474.17,931.4C570.17,927.78 655.36,895.92 730.89,836.19L750.12,861.63L692.64,901.28C716.093,939.82 739.807,978.797 763.78,1018.21L737.86,1034.05C713.65,994.31 689.62,954.84 665.37,915.05C610.386,942.232 550.53,958.18 489.31,961.96L489.31,1007.96L592.58,1007.96L592.58,1068.75L324.38,1068.75L324.38,1008.25L427.73,1008.25L427.73,961.83C419.66,960.91 411.57,960.06 403.51,959.08C348.97,952.43 297.18,936.61 248.74,910.76C140.387,852.96 65.863,766.04 25.17,650C13.199,615.535 5.707,579.675 2.88,543.3C2.38,537.19 1.63,531.1 1,525L1,481ZM442.87,931.17L442.87,74.52C441.77,74.46 440.97,74.34 440.17,74.38C396.573,76.49 353.555,85.258 312.61,100.38C307.54,102.25 301.99,104.11 298.04,107.56C279.188,123.994 262.386,142.642 248,163.1C210.68,216.19 191.06,274.47 197,340C200.15,374.94 210.71,407.61 231.21,436.19C248.76,460.66 267.69,484.19 286.46,507.73C308.07,535 330,562 346.24,593C358.75,616.82 367.35,641.8 368.96,668.86C371.04,703.86 361.55,736.01 344.4,766.17C326.02,798.51 301.55,825.88 274.56,851.17C266.08,859.11 257.32,866.77 248.2,875C308.7,909.38 373.29,927.92 442.87,931.17ZM220.3,148C219.6,148.43 219.01,148.75 218.47,149.12C168.88,183.41 127.9,226 96.35,277.35C44.14,362.35 24.1,454.69 35.25,553.67C40.826,602.867 55.195,650.664 77.67,694.78C110.67,760.16 157.45,813.61 217.39,855.64C220.09,857.54 221.81,857.37 224.18,855.24C230.86,849.24 237.86,843.56 244.54,837.54C271.13,813.61 295.63,787.85 314.47,757.15C340.16,715.31 347.1,671.6 327.82,625.21C316.27,597.42 299.2,573.05 280.82,549.56C258.94,521.65 236.4,494.25 214.82,466.11C180.88,421.89 164.98,371.37 165.37,315.85C165.67,271.37 176.46,229.23 196.7,189.65C203.89,175.52 212.31,162 220.3,148ZM884,433.85C852.89,226.45 667.21,76.58 474.12,74.56L474.12,433.85L884,433.85Z" style="fill:white;fill-rule:nonzero;"/>
    </g>
</svg>
